<svg width="704" height="256" viewBox="0 0 704 256" fill="none" xmlns="http://www.w3.org/2000/svg">
<g clip-path="url(#clip0_15806_903)">
<path d="M0 250.337C3.00496 241.883 3.61845 230.887 5.80302 222.13C6.95857 217.498 11.9401 219.314 15.0341 220.275C17.3457 220.903 19.9714 221.03 22.3642 221.273C31.5378 222.313 34.3984 218.382 37.3993 210.139C39.3119 204.885 40.2383 197.485 41.2215 191.735L45.6916 165.583L61.9083 70.7061C62.7199 65.9558 65.825 45.237 67.3905 42.5038C69.5069 41.5472 106.525 41.774 108.832 42.5997C110.913 44.971 106.392 62.8886 105.69 66.3757L98.2878 103.931L84.7808 172.483C81.8001 187.637 79.0347 204.165 74.3363 218.818C71.3274 228.203 65.9935 239.194 58.4932 245.638C53.6649 249.786 47.6352 252.752 41.4308 254.245C39.479 254.714 35.6878 255.372 33.9771 256H13.8597H0V251.792V250.337Z" fill="#F1F1F1"/>
<path d="M163.98 85.7012C174.408 84.795 187.799 88.4347 195.747 95.5293C197.976 97.5192 200.651 101.746 203.356 102.93C203.566 103.021 204.051 102.674 204.324 102.523C206.404 99.7342 205.841 92.101 205.801 88.3555C211.391 87.4394 235.555 87.2597 241.255 87.96C241.489 99.3507 237.302 116.394 234.42 127.48C231.886 137.477 229.607 147.538 227.587 157.651C226.301 164.024 224.578 172.108 224.305 178.452C226.1 178.251 229.768 177.403 231.054 178.591C232.263 183.111 229.043 208.348 225.656 212.256C223.104 215.2 210.039 214.048 205.963 213.518C199.717 212.705 194.115 210.507 190.11 205.246C187.528 201.426 186.497 198.153 185.166 193.855C176.798 202.792 169.656 212.932 155.759 213.653C140.82 214.429 125.553 213.009 113.875 202.652C105.136 195.266 101.416 188.1 100.703 176.663C98.117 135.21 117.104 89.1883 163.98 85.7012ZM189.064 165.198C196.93 145.825 198.671 113.635 168.077 117.633C160.369 118.771 154.948 120.964 150.349 127.55C136.712 147.082 129.602 183.746 165.333 181.064C175.506 179.282 184.88 175.502 189.064 165.198Z" fill="#F1F1F1"/>
<path d="M640.475 85.7002C703.316 79.8745 716.22 141.775 684.141 183.676C669.687 202.555 651.843 211.208 628.674 214.061C612.009 214.567 596.85 213.699 583.67 202.202C557.209 179.122 566.005 135.9 586.716 112.212C601.621 95.1628 618.341 87.3413 640.475 85.7002ZM653.689 123.379C649.866 119.726 643.345 118.668 638.148 119.011L637.994 119.021C617.073 121.256 608.026 139.846 607.28 158.832C606.682 174.11 614.051 181.891 629.493 180.917C637.536 180.393 643.126 177.906 648.643 171.642C658.739 160.181 666.315 135.445 653.689 123.379Z" fill="#F1F1F1"/>
<path d="M519.489 87.4979C524.552 86.8815 532.782 87.3399 537.677 88.5505C570.546 96.6809 557.456 137.647 553.169 160.446C551.028 172.156 548.732 183.838 546.281 195.488C545.164 201.04 544.246 206.826 542.926 212.306C530.32 212.164 517.554 212.525 505.007 212.224C505.938 203.066 508.186 195.5 509.682 186.353C512.274 169.463 517.406 152.537 518.049 135.475C518.544 122.351 506.261 120.541 496.31 123.819C487.132 126.841 481.645 133.42 477.459 141.728C473.543 149.983 471.058 168.437 469.325 177.763C467.194 189.225 465.001 200.82 462.804 212.288C451.385 212.351 435.469 212.816 424.435 211.925C426.033 198.873 430.114 180.797 432.592 167.655C437.401 141.833 442.42 116.05 447.642 90.3088C459.284 90.0084 470.931 89.905 482.577 89.9985C481.594 96.4359 480.803 101.901 480.456 108.386C494.443 94.9529 499.156 90.3411 519.489 87.4979Z" fill="#F1F1F1"/>
<path d="M310.762 85.7547C323.602 85.106 355.489 88.1958 363.196 99.1966C362.003 102.228 347.325 123.217 344.957 126.056C340.981 124.334 336.923 121.627 332.949 119.766C324.637 115.871 314.99 114.747 305.886 114.698C301.924 114.528 294.269 115.451 291.49 118.973C282.415 130.473 302.699 133.28 307.951 134.421C327.001 138.559 355.75 142.218 355.733 167.317C355.726 178.016 351.127 189.293 343.668 196.982C329.912 210.521 309.433 213.941 290.899 214.104C276.395 214.202 247.353 211.479 238.002 199.175C239.753 194.74 252.828 176.714 256.487 173.39C259.583 174.905 262.85 177.155 266.102 178.775C276.943 184.176 287.83 185.559 299.833 185.21C305.367 185.046 313.523 184.537 317.52 180.168C322.059 175.206 318.302 170.457 313.203 168.458C308.873 166.76 305.419 166.322 301.05 165.289C288.401 162.265 271.922 160.486 261.762 151.617C247.64 139.289 253.96 114.638 265.352 102.72C277.084 90.4466 294.612 86.509 310.762 85.7547Z" fill="#F1F1F1"/>
<path d="M390.73 89.512C395.378 89.5038 419.416 89.0213 421.853 90.2419C422.434 95.3873 418.564 113.469 417.405 119.747L409.582 161.987L403.975 192.376C403.043 197.428 401.858 204.989 400.558 209.751C399.255 209.868 397.43 209.872 396.086 209.912L377.183 209.937C372.852 209.939 367.916 210.09 363.677 209.426C363.736 205.036 365.633 195.876 366.493 191.223L371.958 161.704L380.521 115.014C381.92 107.422 383.519 97.1295 385.361 89.7999C386.887 89.6065 389.135 89.5766 390.73 89.512Z" fill="#F1F1F1"/>
<path d="M409 5L419.215 36.4397L452.273 36.4397L425.529 55.8705L435.744 87.3103L409 67.8795L382.256 87.3103L392.471 55.8705L365.727 36.4397L398.785 36.4397L409 5Z" fill="url(#paint0_linear_15806_903)"/>
</g>
<defs>
<linearGradient id="paint0_linear_15806_903" x1="409" y1="5" x2="386.724" y2="85.5729" gradientUnits="userSpaceOnUse">
<stop stop-color="#C59E51"/>
<stop offset="0.596154" stop-color="#FEF6DE"/>
<stop offset="0.857269" stop-color="#E8B346"/>
</linearGradient>
<clipPath id="clip0_15806_903">
<rect width="704" height="256" fill="white"/>
</clipPath>
</defs>
</svg>
