<?xml version="1.0" encoding="UTF-8"?>
<svg version="1.1" xmlns="http://www.w3.org/2000/svg" width="1000" height="442">
<path d="M0 0 C12.21 0 24.42 0 37 0 C37.33 20.46 37.66 40.92 38 62 C43.28 55.07 48.56 48.14 54 41 C58.640625 34.91796875 58.640625 34.91796875 60.48754883 32.49780273 C72.81599982 17.81939455 72.81599982 17.81939455 83.04101562 1.82739258 C86.35647899 -1.26535958 90.34755088 -0.48774088 94.69921875 -0.390625 C95.64940384 -0.38496521 96.59958893 -0.37930542 97.5785675 -0.37347412 C100.61538944 -0.35107148 103.65103431 -0.3008677 106.6875 -0.25 C108.74542568 -0.22994004 110.80336983 -0.21168839 112.86132812 -0.1953125 C117.90800607 -0.15119387 122.95380343 -0.0821393 128 0 C126.41763638 4.22360877 124.52981013 7.01441103 121.5625 10.4375 C120.6545212 11.49982689 119.74833796 12.56369052 118.84375 13.62890625 C118.37453125 14.18078613 117.9053125 14.73266602 117.421875 15.30126953 C115.07160545 18.10916368 112.8157357 20.98905055 110.5625 23.875 C110.10488281 24.46023437 109.64726562 25.04546875 109.17578125 25.6484375 C108.24554093 26.83924934 107.31585388 28.0304936 106.38671875 29.22216797 C104.1173984 32.13153255 101.84069415 35.03508146 99.5625 37.9375 C99.11285889 38.51081055 98.66321777 39.08412109 98.19995117 39.67480469 C95.29430724 43.37299072 92.36139297 47.04806152 89.41259766 50.71191406 C87.41083067 53.20252157 85.41920095 55.70107002 83.43115234 58.20263672 C82.48427327 59.39180829 81.53412133 60.57838187 80.58056641 61.76220703 C79.26998676 63.3942584 77.97673895 65.03856904 76.6875 66.6875 C75.94886719 67.61949219 75.21023437 68.55148438 74.44921875 69.51171875 C72.77304004 71.80727546 72.77304004 71.80727546 73.25415039 73.94970703 C74.05700552 76.15670453 74.9740775 77.50315429 76.484375 79.29296875 C77.00064453 79.91429687 77.51691406 80.535625 78.04882812 81.17578125 C78.8909082 82.17158203 78.8909082 82.17158203 79.75 83.1875 C84.46356586 88.86674657 89.05094778 94.61118882 93.5 100.5 C98.24258815 106.76087307 103.12329171 112.88478122 108.10522461 118.95629883 C113.79920511 125.92328513 119.2381097 133.08017265 124.66064453 140.25927734 C125.86258733 141.82140861 127.11396873 143.34520441 128.37109375 144.86328125 C130 147 130 147 130 149 C123.75652518 149.29812736 117.51724051 149.51502905 111.26831055 149.65917969 C109.14648245 149.71929088 107.02514667 149.80101343 104.9050293 149.90527344 C87.34214744 150.74690555 87.34214744 150.74690555 81.81835938 146.62695312 C79.50112314 143.53267958 77.75493583 140.43943772 76 137 C74.75482158 135.28376328 73.47206291 133.59398831 72.1484375 131.9375 C71.53218506 131.13086914 70.91593262 130.32423828 70.28100586 129.49316406 C69.65202393 128.67041992 69.02304199 127.84767578 68.375 127 C62.25092246 118.9783107 56.17162203 110.92457287 50.13623047 102.8359375 C46.15209936 97.50431513 42.08811327 92.25614563 38 87 C37.67 107.46 37.34 127.92 37 149 C24.79 149 12.58 149 0 149 C0 99.83 0 50.66 0 0 Z " fill="#61C761" transform="translate(122,144)"/>
<path d="M0 0 C0.74314453 0.00491455 1.48628906 0.0098291 2.25195312 0.01489258 C13.54071854 0.25479115 23.60984176 4.09600235 31.6875 12.125 C32.656875 13.176875 33.62625 14.22875 34.625 15.3125 C35.12 8.8775 35.12 8.8775 35.625 2.3125 C47.835 2.3125 60.045 2.3125 72.625 2.3125 C72.625 41.2525 72.625 80.1925 72.625 120.3125 C60.415 120.3125 48.205 120.3125 35.625 120.3125 C35.295 116.0225 34.965 111.7325 34.625 107.3125 C33.366875 108.529375 32.10875 109.74625 30.8125 111 C20.83225013 119.82447759 9.35563297 122.69403069 -3.75 122.25 C-18.63004102 120.94818563 -29.31984519 114.35819589 -39.05859375 103.421875 C-50.97934943 89.16824025 -53.73048485 70.35579359 -52.375 52.3125 C-50.87778718 37.85412131 -45.11500446 23.41057316 -34.375 13.3125 C-33.84519531 12.77496094 -33.31539062 12.23742187 -32.76953125 11.68359375 C-23.99139193 3.36416955 -11.8688378 -0.09365849 0 0 Z M-13.375 42.3125 C-18.57674089 49.98769117 -19.36049422 60.15888313 -17.75 69.125 C-15.62855448 76.7959222 -10.98776899 82.91332741 -4.375 87.3125 C1.84285596 90.363952 9.45448975 90.54303333 16.07421875 88.58984375 C22.59638579 85.52131945 27.08686549 80.53473655 30.625 74.3125 C33.77397458 65.02302499 33.67773915 56.00363207 29.94140625 46.890625 C26.30860891 39.77594772 21.76429731 35.52191954 14.171875 32.93359375 C3.18676328 30.25470914 -5.99370532 33.93284839 -13.375 42.3125 Z " fill="#61C761" transform="translate(574.375,172.6875)"/>
<path d="M0 0 C12.5263262 10.85867612 18.02026878 21.67946889 21.26953125 37.92578125 C21.26953125 44.85578125 21.26953125 51.78578125 21.26953125 58.92578125 C-5.79046875 58.92578125 -32.85046875 58.92578125 -60.73046875 58.92578125 C-57.12296516 70.22450408 -57.12296516 70.22450408 -48.99609375 77.55078125 C-42.8685445 80.13080199 -35.42145895 80.28268083 -29.1484375 77.9765625 C-25.94824758 76.09444709 -24.11434935 74.86889753 -22.68505859 71.35742188 C-20.73046875 68.92578125 -20.73046875 68.92578125 -16.80981445 68.3581543 C-15.17507919 68.3589452 -13.54021011 68.38715736 -11.90625 68.4375 C-11.04484909 68.44457474 -10.18344818 68.45164948 -9.29594421 68.4589386 C-6.54406962 68.48693286 -3.79422842 68.54967802 -1.04296875 68.61328125 C0.82223624 68.63835773 2.68747312 68.66117204 4.55273438 68.68164062 C9.12578373 68.73677574 13.69731275 68.82308092 18.26953125 68.92578125 C16.64005251 81.49249086 9.42727262 90.80591238 -0.07421875 98.9296875 C-14.663178 109.89509031 -32.00715124 112.21825384 -49.73046875 109.92578125 C-64.46996733 107.60905313 -77.54480665 100.20300097 -86.41796875 88.17578125 C-97.41244023 71.6589725 -99.88201796 53.19005782 -96.140625 33.91552734 C-93.90859276 23.44540288 -89.86738475 14.92965451 -82.73046875 6.92578125 C-81.94736328 6.00345703 -81.94736328 6.00345703 -81.1484375 5.0625 C-61.51410419 -16.48271733 -22.52436454 -17.11078336 0 0 Z M-55.54296875 25.61328125 C-58.39255666 29.61753502 -58.39255666 29.61753502 -60.73046875 37.92578125 C-46.21046875 37.92578125 -31.69046875 37.92578125 -16.73046875 37.92578125 C-16.73046875 31.32779379 -17.70240225 28.84547706 -21.73046875 23.92578125 C-32.11180854 15.82833621 -46.13239485 16.62095508 -55.54296875 25.61328125 Z " fill="#61C761" transform="translate(340.73046875,184.07421875)"/>
<path d="M0 0 C12.05233757 9.12068789 19.96863206 21.66520301 22.94140625 36.546875 C25.341046 55.18870444 23.10464966 73.60796671 11.37890625 88.8671875 C-1.35165245 103.82054217 -17.16678528 109.65966136 -36.21875 111.46875 C-38.38209129 111.53261247 -40.43209116 111.43147556 -42.5859375 111.21875 C-43.55402344 111.1259375 -44.52210938 111.033125 -45.51953125 110.9375 C-58.23999638 109.34935069 -69.6687952 105.47147681 -79.5859375 97.21875 C-80.63007812 96.36023438 -80.63007812 96.36023438 -81.6953125 95.484375 C-90.63987978 87.37186049 -96.3595085 75.99490338 -98.5859375 64.21875 C-98.76769531 63.2803125 -98.94945312 62.341875 -99.13671875 61.375 C-101.79949392 42.66611014 -97.41674827 25.22521563 -86.859375 9.67578125 C-66.46212226 -15.31327009 -25.58861227 -17.62599274 0 0 Z M-57.0859375 30.09375 C-63.04983222 38.38078975 -62.45146536 49.48949183 -61.5859375 59.21875 C-60.05949393 67.00554439 -56.05128936 71.77382059 -49.5859375 76.21875 C-43.83470343 79.5003365 -37.89385383 79.81871589 -31.5234375 78.21875 C-24.63275663 75.83969688 -19.49097164 71.61109254 -16.1484375 65.09375 C-12.14982812 54.66182241 -12.88477801 43.14003164 -17.2109375 32.96875 C-20.4497494 26.97634147 -26.25095071 23.34645833 -32.5859375 21.21875 C-42.28101529 19.8039537 -50.84604394 22.32787763 -57.0859375 30.09375 Z " fill="#61C761" transform="translate(854.5859375,183.78125)"/>
<path d="M0 0 C12.21 0 24.42 0 37 0 C37 9.57 37 19.14 37 29 C44.92 29 52.84 29 61 29 C61 38.9 61 48.8 61 59 C53.08 59 45.16 59 37 59 C37.0969659 65.88713069 37.19971853 72.77366406 37.31738281 79.66040039 C37.35564716 82.00279473 37.39050446 84.34524733 37.421875 86.68774414 C37.46758025 90.056364 37.52556661 93.42458373 37.5859375 96.79296875 C37.59748871 97.83897751 37.60903992 98.88498627 37.62094116 99.96269226 C37.64081085 100.94333145 37.66068054 101.92397064 37.68115234 102.93432617 C37.69447601 103.79370285 37.70779968 104.65307953 37.7215271 105.53849792 C38.04063544 108.35918834 38.70132079 110.47608843 40 113 C45.70500346 115.42766105 51.86560302 115.5784682 58 116 C58.63615234 117.55847656 58.63615234 117.55847656 59.28515625 119.1484375 C62.38948748 126.58865138 65.50927696 133.42458629 70.421875 139.88671875 C72.12658728 142.16951415 73.54981198 144.54958649 75 147 C69.38072532 147.07486735 63.7617491 147.12893696 58.14208984 147.16479492 C56.23546279 147.17976338 54.32886945 147.20014546 52.42236328 147.22631836 C37.44145082 147.42663995 22.74111311 147.4561891 10.80859375 137.09765625 C-0.17198605 125.91485583 -0.17233152 111.06532859 -0.09765625 96.3046875 C-0.0962413 95.23123077 -0.09482635 94.15777405 -0.09336853 93.05178833 C-0.08781925 89.6594959 -0.07527647 86.26727212 -0.0625 82.875 C-0.05747844 80.55989679 -0.05291668 78.24479254 -0.04882812 75.9296875 C-0.03786649 70.28643232 -0.02063744 64.64322775 0 59 C-4.62 59 -9.24 59 -14 59 C-14 49.1 -14 39.2 -14 29 C-9.38 29 -4.76 29 0 29 C0 19.43 0 9.86 0 0 Z " fill="#61C761" transform="translate(449,146)"/>
<path d="M0 0 C0.763125 0.2784375 1.52625 0.556875 2.3125 0.84375 C2.869375 1.0603125 3.42625 1.276875 4 1.5 C3.6596875 1.92667969 3.319375 2.35335937 2.96875 2.79296875 C-4.56183649 12.5066242 -10.30443931 22.14552844 -14.08984375 33.796875 C-15 36.5 -15 36.5 -16 37.5 C-19.70244012 38.09375189 -23.4050114 38.64486115 -27.12304688 39.13085938 C-33.32573925 40.05898096 -37.37801628 41.69073173 -41.75 46.375 C-44.53419693 51.10813477 -45.25448425 55.62817202 -45.31884766 61.05615234 C-45.33871735 62.33702728 -45.35858704 63.61790222 -45.37905884 64.93759155 C-45.39093252 66.32037178 -45.40259553 67.70315384 -45.4140625 69.0859375 C-45.43278979 70.51226909 -45.45236435 71.93858979 -45.4727478 73.36489868 C-45.52391041 77.10318556 -45.56362055 80.8415083 -45.60089111 84.57995605 C-45.64809884 89.07389292 -45.70962816 93.56765409 -45.76873779 98.06144714 C-45.85675648 104.87422655 -45.92665866 111.68697559 -46 118.5 C-58.21 118.5 -70.42 118.5 -83 118.5 C-83 79.56 -83 40.62 -83 0.5 C-70.79 0.5 -58.58 0.5 -46 0.5 C-45.505 8.42 -45.505 8.42 -45 16.5 C-44.030625 15.30375 -43.06125 14.1075 -42.0625 12.875 C-32.32757384 1.9425234 -14.5533214 -5.45749553 0 0 Z " fill="#61C761" transform="translate(754,174.5)"/>
<path d="M0 0 C12.21 0 24.42 0 37 0 C37 38.94 37 77.88 37 118 C24.79 118 12.58 118 0 118 C0 79.06 0 40.12 0 0 Z " fill="#61C761" transform="translate(378,175)"/>
<path d="M0 0 C5.27419638 3.14894003 8.60667771 7.51987998 10.5 13.375 C10.80078125 16.71484375 10.80078125 16.71484375 10.8125 20.3125 C10.82925781 21.49714844 10.84601563 22.68179688 10.86328125 23.90234375 C10.19470018 30.29340362 7.23035198 34.20778516 2.5 38.375 C-2.94435323 42.09309489 -7.91145393 43.16472299 -14.5 42.375 C-21.55830775 40.56685326 -26.68211798 37.68918949 -30.5 31.375 C-33.18511649 24.78425952 -33.57514674 17.87173726 -31.25 11.125 C-28.79794049 5.42989404 -25.63927713 1.70046336 -19.97265625 -0.89453125 C-13.52699658 -2.79869927 -6.17552127 -2.78366299 0 0 Z " fill="#61C761" transform="translate(407.5,121.625)"/>
</svg>
