<svg data-v-a2d9b242="" fill="none" viewBox="0 0 126 14" height="14" width="126" xmlns="http://www.w3.org/2000/svg" class="layout-logo__logo">
<mask xmlns="http://www.w3.org/2000/svg" id="path-1-outside-1_5293_57587" maskUnits="userSpaceOnUse" x="56.7852" y="0" width="66" height="14" fill="black">
<rect fill="white" x="56.7852" width="66" height="14"></rect>
<path d="M112.385 13V1H118.954C120.895 1 121.866 1.9735 121.866 3.9205V5.62761C121.866 7.57462 120.895 8.54812 118.954 8.54812H114.1V13H112.385ZM114.1 6.83264H118.862C119.319 6.83264 119.648 6.73222 119.849 6.53138C120.05 6.33054 120.15 6.0014 120.15 5.54393V4.00418C120.15 3.54672 120.05 3.21757 119.849 3.01674C119.648 2.8159 119.319 2.71548 118.862 2.71548H114.1V6.83264Z"></path>
<path d="M98.6423 1H100.358V11.2845H107.211V1H108.927V11.2845C108.927 11.5188 108.882 11.742 108.793 11.954C108.704 12.1604 108.581 12.3417 108.425 12.4979C108.269 12.6541 108.084 12.7768 107.872 12.8661C107.666 12.9554 107.446 13 107.211 13H100.358C100.123 13 99.9003 12.9554 99.6883 12.8661C99.4819 12.7768 99.3006 12.6541 99.1444 12.4979C98.9882 12.3417 98.8655 12.1604 98.7762 11.954C98.6869 11.742 98.6423 11.5188 98.6423 11.2845V1Z"></path>
<path d="M81.6572 5.28452C81.6572 6.95816 80.9432 7.91213 79.515 8.14644L81.7744 13H79.8748L77.6489 8.20502H73.8916V13H72.1761V1H78.7451C80.6865 1 81.6572 1.9735 81.6572 3.9205V5.28452ZM73.8916 6.48954H78.6531C79.1105 6.48954 79.4397 6.38912 79.6405 6.18828C79.8413 5.98745 79.9418 5.6583 79.9418 5.20084V4.00418C79.9418 3.54672 79.8413 3.21757 79.6405 3.01674C79.4397 2.8159 79.1105 2.71548 78.6531 2.71548H73.8916V6.48954Z"></path>
<path d="M57.7852 2.71548C57.7852 2.48117 57.8298 2.26081 57.919 2.05439C58.0083 1.8424 58.131 1.66109 58.2872 1.51046C58.4435 1.35425 58.6248 1.23152 58.8312 1.14226C59.0432 1.04742 59.2663 1 59.5006 1H66.0111C66.2454 1 66.4658 1.04742 66.6722 1.14226C66.8842 1.23152 67.0683 1.35425 67.2245 1.51046C67.3807 1.66109 67.5034 1.8424 67.5927 2.05439C67.6819 2.26081 67.7266 2.48117 67.7266 2.71548V4.2636H66.0111V2.71548H59.5006V11.2845H66.0111V8.37239H62.7559V6.6569H67.7266V11.2845C67.7266 11.5188 67.6819 11.742 67.5927 11.954C67.5034 12.1604 67.3807 12.3417 67.2245 12.4979C67.0683 12.6541 66.8842 12.7768 66.6722 12.8661C66.4658 12.9554 66.2454 13 66.0111 13H59.5006C59.2663 13 59.0432 12.9554 58.8312 12.8661C58.6248 12.7768 58.4435 12.6541 58.2872 12.4979C58.131 12.3417 58.0083 12.1604 57.919 11.954C57.8298 11.742 57.7852 11.5188 57.7852 11.2845V2.71548Z"></path>
<path d="M86.8988 11.2845H93.7524H95.4678C95.4678 11.5188 95.4232 11.742 95.3339 11.954C95.2447 12.1604 95.122 12.3417 94.9657 12.4979C94.8095 12.6541 94.6254 12.7768 94.4134 12.8661C94.207 12.9554 93.9867 13 93.7524 13H86.8988C86.6645 13 86.4413 12.9554 86.2293 12.8661C86.0229 12.7768 85.8416 12.6541 85.6854 12.4979C85.5292 12.3417 85.4065 12.1604 85.3172 11.954C85.228 11.742 85.1833 11.5188 85.1833 11.2845H86.8988Z"></path>
<path d="M85.1833 11.2845H86.8988L86.8992 2.71548H93.7527L93.7524 11.2845H95.4678L95.4682 2.71548C95.4682 2.48117 95.4236 2.25802 95.3343 2.04602C95.245 1.83961 95.1223 1.6583 94.9661 1.50209C94.8099 1.34588 94.6258 1.22315 94.4138 1.13389C94.2074 1.04463 93.987 1 93.7527 1H86.8992C86.6648 1 86.4417 1.04463 86.2297 1.13389C86.0233 1.22315 85.842 1.34588 85.6858 1.50209C85.5296 1.6583 85.4068 1.83961 85.3176 2.04602C85.2283 2.25802 85.1837 2.48117 85.1837 2.71548L85.1833 11.2845Z"></path>
</mask>
<path xmlns="http://www.w3.org/2000/svg" d="M112.385 13V1H118.954C120.895 1 121.866 1.9735 121.866 3.9205V5.62761C121.866 7.57462 120.895 8.54812 118.954 8.54812H114.1V13H112.385ZM114.1 6.83264H118.862C119.319 6.83264 119.648 6.73222 119.849 6.53138C120.05 6.33054 120.15 6.0014 120.15 5.54393V4.00418C120.15 3.54672 120.05 3.21757 119.849 3.01674C119.648 2.8159 119.319 2.71548 118.862 2.71548H114.1V6.83264Z" fill="white"></path>
<path xmlns="http://www.w3.org/2000/svg" d="M98.6423 1H100.358V11.2845H107.211V1H108.927V11.2845C108.927 11.5188 108.882 11.742 108.793 11.954C108.704 12.1604 108.581 12.3417 108.425 12.4979C108.269 12.6541 108.084 12.7768 107.872 12.8661C107.666 12.9554 107.446 13 107.211 13H100.358C100.123 13 99.9003 12.9554 99.6883 12.8661C99.4819 12.7768 99.3006 12.6541 99.1444 12.4979C98.9882 12.3417 98.8655 12.1604 98.7762 11.954C98.6869 11.742 98.6423 11.5188 98.6423 11.2845V1Z" fill="white"></path>
<path xmlns="http://www.w3.org/2000/svg" d="M81.6572 5.28452C81.6572 6.95816 80.9432 7.91213 79.515 8.14644L81.7744 13H79.8748L77.6489 8.20502H73.8916V13H72.1761V1H78.7451C80.6865 1 81.6572 1.9735 81.6572 3.9205V5.28452ZM73.8916 6.48954H78.6531C79.1105 6.48954 79.4397 6.38912 79.6405 6.18828C79.8413 5.98745 79.9418 5.6583 79.9418 5.20084V4.00418C79.9418 3.54672 79.8413 3.21757 79.6405 3.01674C79.4397 2.8159 79.1105 2.71548 78.6531 2.71548H73.8916V6.48954Z" fill="white"></path>
<path xmlns="http://www.w3.org/2000/svg" d="M57.7852 2.71548C57.7852 2.48117 57.8298 2.26081 57.919 2.05439C58.0083 1.8424 58.131 1.66109 58.2872 1.51046C58.4435 1.35425 58.6248 1.23152 58.8312 1.14226C59.0432 1.04742 59.2663 1 59.5006 1H66.0111C66.2454 1 66.4658 1.04742 66.6722 1.14226C66.8842 1.23152 67.0683 1.35425 67.2245 1.51046C67.3807 1.66109 67.5034 1.8424 67.5927 2.05439C67.6819 2.26081 67.7266 2.48117 67.7266 2.71548V4.2636H66.0111V2.71548H59.5006V11.2845H66.0111V8.37239H62.7559V6.6569H67.7266V11.2845C67.7266 11.5188 67.6819 11.742 67.5927 11.954C67.5034 12.1604 67.3807 12.3417 67.2245 12.4979C67.0683 12.6541 66.8842 12.7768 66.6722 12.8661C66.4658 12.9554 66.2454 13 66.0111 13H59.5006C59.2663 13 59.0432 12.9554 58.8312 12.8661C58.6248 12.7768 58.4435 12.6541 58.2872 12.4979C58.131 12.3417 58.0083 12.1604 57.919 11.954C57.8298 11.742 57.7852 11.5188 57.7852 11.2845V2.71548Z" fill="white"></path>
<path xmlns="http://www.w3.org/2000/svg" d="M86.8988 11.2845H93.7524H95.4678C95.4678 11.5188 95.4232 11.742 95.3339 11.954C95.2447 12.1604 95.122 12.3417 94.9657 12.4979C94.8095 12.6541 94.6254 12.7768 94.4134 12.8661C94.207 12.9554 93.9867 13 93.7524 13H86.8988C86.6645 13 86.4413 12.9554 86.2293 12.8661C86.0229 12.7768 85.8416 12.6541 85.6854 12.4979C85.5292 12.3417 85.4065 12.1604 85.3172 11.954C85.228 11.742 85.1833 11.5188 85.1833 11.2845H86.8988Z" fill="white"></path>
<path xmlns="http://www.w3.org/2000/svg" d="M85.1833 11.2845H86.8988L86.8992 2.71548H93.7527L93.7524 11.2845H95.4678L95.4682 2.71548C95.4682 2.48117 95.4236 2.25802 95.3343 2.04602C95.245 1.83961 95.1223 1.6583 94.9661 1.50209C94.8099 1.34588 94.6258 1.22315 94.4138 1.13389C94.2074 1.04463 93.987 1 93.7527 1H86.8992C86.6648 1 86.4417 1.04463 86.2297 1.13389C86.0233 1.22315 85.842 1.34588 85.6858 1.50209C85.5296 1.6583 85.4068 1.83961 85.3176 2.04602C85.2283 2.25802 85.1837 2.48117 85.1837 2.71548L85.1833 11.2845Z" fill="white"></path>
<path xmlns="http://www.w3.org/2000/svg" d="M85.1833 11.5345H86.8988V11.0345H85.1833V11.5345ZM93.7524 11.5345H95.4678V11.0345H93.7524V11.5345ZM112.385 13H111.885V13.5H112.385V13ZM112.385 1V0.5H111.885V1H112.385ZM114.1 8.54812V8.04812H113.6V8.54812H114.1ZM114.1 13V13.5H114.6V13H114.1ZM114.1 6.83264H113.6V7.33264H114.1V6.83264ZM119.849 3.01674L120.203 2.66318L120.203 2.66318L119.849 3.01674ZM114.1 2.71548V2.21548H113.6V2.71548H114.1ZM98.6423 1V0.5H98.1423V1H98.6423ZM100.358 1H100.858V0.5H100.358V1ZM100.358 11.2845H99.8578V11.7845H100.358V11.2845ZM107.211 11.2845V11.7845H107.711V11.2845H107.211ZM107.211 1V0.5H106.711V1H107.211ZM108.927 1H109.427V0.5H108.927V1ZM108.793 11.954L109.252 12.1524L109.254 12.148L108.793 11.954ZM107.872 12.8661L107.678 12.4053L107.674 12.4072L107.872 12.8661ZM99.6883 12.8661L99.4899 13.3251L99.4943 13.3269L99.6883 12.8661ZM98.7762 11.954L98.3154 12.148L98.3173 12.1524L98.7762 11.954ZM79.515 8.14644L79.434 7.65304L78.7835 7.75977L79.0617 8.35746L79.515 8.14644ZM81.7744 13V13.5H82.5587L82.2277 12.789L81.7744 13ZM79.8748 13L79.4213 13.2105L79.5557 13.5H79.8748V13ZM77.6489 8.20502L78.1024 7.99449L77.968 7.70502H77.6489V8.20502ZM73.8916 8.20502V7.70502H73.3916V8.20502H73.8916ZM73.8916 13V13.5H74.3916V13H73.8916ZM72.1761 13H71.6761V13.5H72.1761V13ZM72.1761 1V0.5H71.6761V1H72.1761ZM73.8916 6.48954H73.3916V6.98954H73.8916V6.48954ZM79.6405 3.01674L79.9941 2.66318L79.9941 2.66318L79.6405 3.01674ZM73.8916 2.71548V2.21548H73.3916V2.71548H73.8916ZM57.919 2.05439L58.378 2.25286L58.3799 2.24842L57.919 2.05439ZM58.2872 1.51046L58.6344 1.87044L58.6408 1.86401L58.2872 1.51046ZM58.8312 1.14226L59.0297 1.60122L59.0354 1.59867L58.8312 1.14226ZM66.6722 1.14226L66.4634 1.5966L66.4707 1.59996L66.4782 1.60308L66.6722 1.14226ZM67.2245 1.51046L66.8709 1.86407L66.8774 1.87038L67.2245 1.51046ZM67.5927 2.05439L67.1318 2.24843L67.1338 2.25285L67.5927 2.05439ZM67.7266 4.2636V4.7636H68.2266V4.2636H67.7266ZM66.0111 4.2636H65.5111V4.7636H66.0111V4.2636ZM66.0111 2.71548H66.5111V2.21548H66.0111V2.71548ZM59.5006 2.71548V2.21548H59.0006V2.71548H59.5006ZM59.5006 11.2845H59.0006V11.7845H59.5006V11.2845ZM66.0111 11.2845V11.7845H66.5111V11.2845H66.0111ZM66.0111 8.37239H66.5111V7.87239H66.0111V8.37239ZM62.7559 8.37239H62.2559V8.87239H62.7559V8.37239ZM62.7559 6.6569V6.1569H62.2559V6.6569H62.7559ZM67.7266 6.6569H68.2266V6.1569H67.7266V6.6569ZM67.5927 11.954L68.0516 12.1524L68.0535 12.148L67.5927 11.954ZM66.6722 12.8661L66.4781 12.4053L66.4737 12.4072L66.6722 12.8661ZM58.8312 12.8661L58.6327 13.3251L58.6372 13.3269L58.8312 12.8661ZM57.919 11.954L57.4582 12.148L57.4601 12.1524L57.919 11.954ZM86.8988 11.2845L86.3988 11.2845L86.3988 11.7845H86.8988V11.2845ZM93.7524 11.2845V11.7845H94.2523L94.2524 11.2845L93.7524 11.2845ZM95.4678 11.2845L94.9678 11.2845V11.2845H95.4678ZM95.3339 11.954L95.7929 12.1524L95.7948 12.148L95.3339 11.954ZM94.4134 12.8661L94.2194 12.4053L94.215 12.4072L94.4134 12.8661ZM86.2293 12.8661L86.0309 13.3251L86.0353 13.3269L86.2293 12.8661ZM85.3172 11.954L84.8564 12.148L84.8583 12.1524L85.3172 11.954ZM85.1833 11.2845L84.6833 11.2845V11.2845H85.1833ZM86.8992 2.71548V2.21548H86.3992L86.3992 2.71546L86.8992 2.71548ZM93.7527 2.71548L94.2527 2.7155L94.2527 2.21548H93.7527V2.71548ZM95.4682 2.71548L95.9682 2.7155V2.71548H95.4682ZM95.3343 2.04602L95.7951 1.85199L95.7932 1.84757L95.3343 2.04602ZM94.4138 1.13389L94.2153 1.59284L94.2198 1.59471L94.4138 1.13389ZM86.2297 1.13389L86.0357 0.673052L86.0312 0.674963L86.2297 1.13389ZM85.3176 2.04602L84.8586 1.84756L84.8567 1.852L85.3176 2.04602ZM85.1837 2.71548L85.6837 2.7155V2.71548H85.1837ZM112.885 13V1H111.885V13H112.885ZM112.385 1.5H118.954V0.5H112.385V1.5ZM118.954 1.5C119.847 1.5 120.425 1.72357 120.784 2.08317C121.143 2.44303 121.366 3.02371 121.366 3.9205H122.366C122.366 2.87029 122.104 1.99072 121.492 1.37708C120.88 0.763177 120.002 0.5 118.954 0.5V1.5ZM121.366 3.9205V5.62761H122.366V3.9205H121.366ZM121.366 5.62761C121.366 6.5244 121.143 7.10509 120.784 7.46495C120.425 7.82454 119.847 8.04812 118.954 8.04812V9.04812C120.002 9.04812 120.88 8.78494 121.492 8.17104C122.104 7.5574 122.366 6.67783 122.366 5.62761H121.366ZM118.954 8.04812H114.1V9.04812H118.954V8.04812ZM113.6 8.54812V13H114.6V8.54812H113.6ZM114.1 12.5H112.385V13.5H114.1V12.5ZM114.1 7.33264H118.862V6.33264H114.1V7.33264ZM118.862 7.33264C119.374 7.33264 119.865 7.223 120.203 6.88493L119.496 6.17783C119.432 6.24143 119.264 6.33264 118.862 6.33264V7.33264ZM120.203 6.88493C120.541 6.54687 120.65 6.0563 120.65 5.54393H119.65C119.65 5.94649 119.559 6.11422 119.496 6.17783L120.203 6.88493ZM120.65 5.54393V4.00418H119.65V5.54393H120.65ZM120.65 4.00418C120.65 3.49182 120.541 3.00125 120.203 2.66318L119.496 3.37029C119.559 3.43389 119.65 3.60163 119.65 4.00418H120.65ZM120.203 2.66318C119.865 2.32511 119.374 2.21548 118.862 2.21548V3.21548C119.264 3.21548 119.432 3.30669 119.496 3.37029L120.203 2.66318ZM118.862 2.21548H114.1V3.21548H118.862V2.21548ZM113.6 2.71548V6.83264H114.6V2.71548H113.6ZM98.6423 1.5H100.358V0.5H98.6423V1.5ZM99.8578 1V11.2845H100.858V1H99.8578ZM100.358 11.7845H107.211V10.7845H100.358V11.7845ZM107.711 11.2845V1H106.711V11.2845H107.711ZM107.211 1.5H108.927V0.5H107.211V1.5ZM108.427 1V11.2845H109.427V1H108.427ZM108.427 11.2845C108.427 11.4535 108.395 11.6105 108.332 11.7599L109.254 12.148C109.369 11.8734 109.427 11.5842 109.427 11.2845H108.427ZM108.334 11.7555C108.269 11.9051 108.182 12.0336 108.071 12.1444L108.778 12.8515C108.98 12.6498 109.138 12.4157 109.252 12.1524L108.334 11.7555ZM108.071 12.1444C107.963 12.2529 107.833 12.3401 107.678 12.4053L108.066 13.3269C108.336 13.2136 108.574 13.0553 108.778 12.8515L108.071 12.1444ZM107.674 12.4072C107.533 12.4682 107.38 12.5 107.211 12.5V13.5C107.511 13.5 107.799 13.4425 108.071 13.325L107.674 12.4072ZM107.211 12.5H100.358V13.5H107.211V12.5ZM100.358 12.5C100.189 12.5 100.032 12.4682 99.8824 12.4053L99.4943 13.3269C99.7689 13.4425 100.058 13.5 100.358 13.5V12.5ZM99.8868 12.4072C99.7372 12.3425 99.6088 12.2552 99.4979 12.1444L98.7908 12.8515C98.9925 13.0531 99.2266 13.2112 99.4899 13.325L99.8868 12.4072ZM99.4979 12.1444C99.3871 12.0336 99.2998 11.9051 99.2351 11.7555L98.3173 12.1524C98.4311 12.4157 98.5892 12.6499 98.7908 12.8515L99.4979 12.1444ZM99.237 11.7599C99.1741 11.6105 99.1423 11.4535 99.1423 11.2845H98.1423C98.1423 11.5842 98.1998 11.8734 98.3154 12.148L99.237 11.7599ZM99.1423 11.2845V1H98.1423V11.2845H99.1423ZM81.1572 5.28452C81.1572 6.05589 80.9921 6.5939 80.7214 6.95561C80.4577 7.30783 80.0496 7.55205 79.434 7.65304L79.5959 8.63985C80.4085 8.50653 81.0715 8.1566 81.522 7.55486C81.9653 6.96259 82.1572 6.18679 82.1572 5.28452H81.1572ZM79.0617 8.35746L81.3211 13.211L82.2277 12.789L79.9683 7.93543L79.0617 8.35746ZM81.7744 12.5H79.8748V13.5H81.7744V12.5ZM80.3283 12.7895L78.1024 7.99449L77.1954 8.41555L79.4213 13.2105L80.3283 12.7895ZM77.6489 7.70502H73.8916V8.70502H77.6489V7.70502ZM73.3916 8.20502V13H74.3916V8.20502H73.3916ZM73.8916 12.5H72.1761V13.5H73.8916V12.5ZM72.6761 13V1H71.6761V13H72.6761ZM72.1761 1.5H78.7451V0.5H72.1761V1.5ZM78.7451 1.5C79.6384 1.5 80.2166 1.72357 80.5752 2.08317C80.934 2.44303 81.1572 3.02371 81.1572 3.9205H82.1572C82.1572 2.87029 81.8952 1.99072 81.2833 1.37708C80.6711 0.763177 79.7933 0.5 78.7451 0.5V1.5ZM81.1572 3.9205V5.28452H82.1572V3.9205H81.1572ZM73.8916 6.98954H78.6531V5.98954H73.8916V6.98954ZM78.6531 6.98954C79.1654 6.98954 79.656 6.87991 79.9941 6.54184L79.287 5.83473C79.2233 5.89834 79.0556 5.98954 78.6531 5.98954V6.98954ZM79.9941 6.54184C80.3321 6.20377 80.4418 5.7132 80.4418 5.20084H79.4418C79.4418 5.6034 79.3506 5.77113 79.287 5.83473L79.9941 6.54184ZM80.4418 5.20084V4.00418H79.4418V5.20084H80.4418ZM80.4418 4.00418C80.4418 3.49182 80.3321 3.00125 79.9941 2.66318L79.287 3.37029C79.3506 3.43389 79.4418 3.60163 79.4418 4.00418H80.4418ZM79.9941 2.66318C79.656 2.32511 79.1654 2.21548 78.6531 2.21548V3.21548C79.0556 3.21548 79.2233 3.30669 79.287 3.37029L79.9941 2.66318ZM78.6531 2.21548H73.8916V3.21548H78.6531V2.21548ZM73.3916 2.71548V6.48954H74.3916V2.71548H73.3916ZM58.2852 2.71548C58.2852 2.54651 58.3169 2.39398 58.378 2.25285L57.4601 1.85594C57.3426 2.12763 57.2852 2.41583 57.2852 2.71548H58.2852ZM58.3799 2.24842C58.4444 2.09505 58.5298 1.9712 58.6343 1.87038L57.9402 1.15054C57.7323 1.35097 57.5722 1.58974 57.4582 1.86036L58.3799 2.24842ZM58.6408 1.86401C58.7516 1.75321 58.88 1.66588 59.0296 1.60119L58.6327 0.683331C58.3695 0.797161 58.1353 0.955295 57.9337 1.15691L58.6408 1.86401ZM59.0354 1.59867C59.1825 1.53283 59.3361 1.5 59.5006 1.5V0.5C59.1966 0.5 58.9038 0.562011 58.627 0.68585L59.0354 1.59867ZM59.5006 1.5H66.0111V0.5H59.5006V1.5ZM66.0111 1.5C66.1757 1.5 66.3246 1.5328 66.4634 1.5966L66.8809 0.687921C66.607 0.562038 66.3151 0.5 66.0111 0.5V1.5ZM66.4782 1.60308C66.633 1.66829 66.7623 1.75543 66.8709 1.86401L67.578 1.15691C67.3742 0.953082 67.1353 0.794748 66.8662 0.681442L66.4782 1.60308ZM66.8774 1.87038C66.982 1.9712 67.0673 2.09505 67.1319 2.24842L68.0535 1.86036C67.9396 1.58974 67.7794 1.35097 67.5716 1.15054L66.8774 1.87038ZM67.1338 2.25285C67.1948 2.39398 67.2266 2.54651 67.2266 2.71548H68.2266C68.2266 2.41583 68.1691 2.12763 68.0516 1.85594L67.1338 2.25285ZM67.2266 2.71548V4.2636H68.2266V2.71548H67.2266ZM67.7266 3.7636H66.0111V4.7636H67.7266V3.7636ZM66.5111 4.2636V2.71548H65.5111V4.2636H66.5111ZM66.0111 2.21548H59.5006V3.21548H66.0111V2.21548ZM59.0006 2.71548V11.2845H60.0006V2.71548H59.0006ZM59.5006 11.7845H66.0111V10.7845H59.5006V11.7845ZM66.5111 11.2845V8.37239H65.5111V11.2845H66.5111ZM66.0111 7.87239H62.7559V8.87239H66.0111V7.87239ZM63.2559 8.37239V6.6569H62.2559V8.37239H63.2559ZM62.7559 7.1569H67.7266V6.1569H62.7559V7.1569ZM67.2266 6.6569V11.2845H68.2266V6.6569H67.2266ZM67.2266 11.2845C67.2266 11.4535 67.1948 11.6105 67.1319 11.7599L68.0535 12.148C68.1691 11.8734 68.2266 11.5842 68.2266 11.2845H67.2266ZM67.1338 11.7555C67.0691 11.9051 66.9817 12.0336 66.8709 12.1444L67.578 12.8515C67.7797 12.6498 67.9378 12.4157 68.0516 12.1524L67.1338 11.7555ZM66.8709 12.1444C66.7623 12.2529 66.633 12.3401 66.4782 12.4053L66.8662 13.3269C67.1353 13.2136 67.3742 13.0553 67.578 12.8515L66.8709 12.1444ZM66.4737 12.4072C66.3326 12.4682 66.1801 12.5 66.0111 12.5V13.5C66.3107 13.5 66.5989 13.4425 66.8706 13.325L66.4737 12.4072ZM66.0111 12.5H59.5006V13.5H66.0111V12.5ZM59.5006 12.5C59.3317 12.5 59.1746 12.4682 59.0252 12.4053L58.6372 13.3269C58.9117 13.4425 59.201 13.5 59.5006 13.5V12.5ZM59.0296 12.4072C58.88 12.3425 58.7516 12.2552 58.6408 12.1444L57.9337 12.8515C58.1353 13.0531 58.3695 13.2112 58.6327 13.325L59.0296 12.4072ZM58.6408 12.1444C58.53 12.0336 58.4427 11.9051 58.378 11.7555L57.4601 12.1524C57.5739 12.4157 57.7321 12.6499 57.9337 12.8515L58.6408 12.1444ZM58.3799 11.7599C58.317 11.6105 58.2852 11.4535 58.2852 11.2845H57.2852C57.2852 11.5842 57.3426 11.8734 57.4582 12.148L58.3799 11.7599ZM58.2852 11.2845V2.71548H57.2852V11.2845H58.2852ZM86.8988 11.7845H93.7524V10.7845H86.8988V11.7845ZM94.9678 11.2845C94.9678 11.4535 94.936 11.6105 94.8731 11.7599L95.7948 12.148C95.9104 11.8734 95.9678 11.5842 95.9678 11.2845H94.9678ZM94.875 11.7555C94.8103 11.9051 94.723 12.0336 94.6122 12.1444L95.3193 12.8515C95.5209 12.6498 95.679 12.4157 95.7929 12.1524L94.875 11.7555ZM94.6122 12.1444C94.5036 12.2529 94.3743 12.3401 94.2194 12.4053L94.6075 13.3269C94.8766 13.2136 95.1155 13.0553 95.3193 12.8515L94.6122 12.1444ZM94.215 12.4072C94.0739 12.4682 93.9213 12.5 93.7524 12.5V13.5C94.052 13.5 94.3402 13.4425 94.6119 13.325L94.215 12.4072ZM93.7524 12.5H86.8988V13.5H93.7524V12.5ZM86.8988 12.5C86.7299 12.5 86.5728 12.4682 86.4234 12.4053L86.0353 13.3269C86.3099 13.4425 86.5991 13.5 86.8988 13.5V12.5ZM86.4278 12.4072C86.2782 12.3425 86.1498 12.2552 86.039 12.1444L85.3319 12.8515C85.5335 13.0531 85.7677 13.2112 86.0309 13.325L86.4278 12.4072ZM86.039 12.1444C85.9282 12.0336 85.8408 11.9051 85.7761 11.7555L84.8583 12.1524C84.9721 12.4157 85.1302 12.6499 85.3319 12.8515L86.039 12.1444ZM85.778 11.7599C85.7151 11.6105 85.6833 11.4535 85.6833 11.2845H84.6833C84.6833 11.5842 84.7408 11.8734 84.8564 12.148L85.778 11.7599ZM87.3988 11.2845L87.3992 2.7155L86.3992 2.71546L86.3988 11.2845L87.3988 11.2845ZM86.8992 3.21548H93.7527V2.21548H86.8992V3.21548ZM93.2527 2.71546L93.2524 11.2845L94.2524 11.2845L94.2527 2.7155L93.2527 2.71546ZM95.9678 11.2845L95.9682 2.7155L94.9682 2.71546L94.9678 11.2845L95.9678 11.2845ZM95.9682 2.71548C95.9682 2.4158 95.9107 2.12657 95.7951 1.852L94.8735 2.24005C94.9364 2.38947 94.9682 2.54654 94.9682 2.71548H95.9682ZM95.7932 1.84757C95.6794 1.58434 95.5213 1.35015 95.3197 1.14854L94.6125 1.85564C94.7233 1.96644 94.8107 2.09488 94.8754 2.24448L95.7932 1.84757ZM95.3197 1.14854C95.1158 0.944711 94.8769 0.786379 94.6078 0.673074L94.2198 1.59471C94.3747 1.65992 94.504 1.74706 94.6125 1.85564L95.3197 1.14854ZM94.6123 0.674963C94.3406 0.557472 94.0524 0.5 93.7527 0.5V1.5C93.9217 1.5 94.0742 1.53179 94.2153 1.59282L94.6123 0.674963ZM93.7527 0.5H86.8992V1.5H93.7527V0.5ZM86.8992 0.5C86.5995 0.5 86.3102 0.557462 86.0357 0.673073L86.4237 1.59471C86.5731 1.5318 86.7302 1.5 86.8992 1.5V0.5ZM86.0312 0.674963C85.768 0.788793 85.5338 0.946927 85.3322 1.14854L86.0393 1.85564C86.1501 1.74484 86.2786 1.65751 86.4281 1.59282L86.0312 0.674963ZM85.3322 1.14854C85.1306 1.35015 84.9725 1.58434 84.8586 1.84757L85.7765 2.24448C85.8412 2.09488 85.9285 1.96645 86.0393 1.85564L85.3322 1.14854ZM84.8567 1.852C84.7411 2.12657 84.6837 2.4158 84.6837 2.71548H85.6837C85.6837 2.54654 85.7155 2.38947 85.7784 2.24005L84.8567 1.852ZM84.6837 2.71546L84.6833 11.2845L85.6833 11.2845L85.6837 2.7155L84.6837 2.71546Z" fill="white" mask="url(#path-1-outside-1_5293_57587)"></path>
<path xmlns="http://www.w3.org/2000/svg" d="M35.5465 1V0.75H35.2965H33.581H33.331V1V13V13.25H33.581H35.2965H35.5465V13V8.16473L41.1123 13.1856L41.1836 13.25H41.2797H43.6982H44.3465L43.866 12.8147L37.309 6.87525L43.0938 1.17812L43.5285 0.75H42.9184H40.5H40.3968L40.3236 0.822822L35.5465 5.5783V1ZM20.2014 13.25H20.4514V13V4.42512L27.2172 13.1532L27.2923 13.25H27.4148H29.1303H29.3803V13V1V0.75H29.1303H27.4148H27.1648V1V9.57488L20.399 0.846835L20.324 0.75H20.2014H18.486H18.236V1V13V13.25H18.486H20.2014ZM14.2781 1V0.75H14.0281H12.3126H12.0626V1V13V13.25H12.3126H14.0281H14.2781V13V1ZM2.96548 1V0.75H2.71548H1H0.75V1V13V13.25H1H8.88284H9.13284V13V11.2845V11.0345H8.88284H2.96548V1ZM49.442 1V0.75H49.192H47.4766H47.2266V1V13V13.25H47.4766H49.192H49.442V13V1ZM52.4766 10.2478H52.2266V10.4978V12.9999V13.2499H52.4766H54.9787H55.2287V12.9999V10.4978V10.2478H54.9787H52.4766Z" fill="#21BF73" stroke="#21BF73" stroke-width="0.5"></path>
</svg>