<?xml version="1.0" encoding="UTF-8"?>
<svg version="1.1" xmlns="http://www.w3.org/2000/svg" width="691" height="361">
<path d="M0 0 C1.25190125 -0.00938095 2.50380249 -0.0187619 3.79364014 -0.02842712 C5.1531238 -0.01794381 6.51260088 -0.00657413 7.87207031 0.00561523 C9.27826004 0.00546008 10.68445019 0.00396843 12.09063721 0.00120544 C15.0362034 -0.00017726 17.98128197 0.01235073 20.92675781 0.03515625 C24.68021821 0.06343644 28.43286253 0.06083067 32.18638229 0.04806614 C35.09143894 0.04106664 37.99631122 0.04894823 40.9013443 0.06132317 C42.28385966 0.06580378 43.66639506 0.06620449 45.04891205 0.06225777 C62.35230253 0.03599735 62.35230253 0.03599735 68.85644531 5.22045898 C69.29988281 5.80827148 69.74332031 6.39608398 70.20019531 7.00170898 C70.89628906 7.88342773 70.89628906 7.88342773 71.60644531 8.78295898 C73.41412847 11.62360394 73.843761 14.2294571 74.01660156 17.51342773 C74.05849609 18.27075195 74.10039062 19.02807617 74.14355469 19.80834961 C74.18287109 20.5940332 74.2221875 21.3797168 74.26269531 22.18920898 C74.30587891 22.98649414 74.3490625 23.7837793 74.39355469 24.60522461 C74.499469 26.57052345 74.60032082 28.53609395 74.70019531 30.50170898 C74.80565674 29.83115479 74.91111816 29.16060059 75.01977539 28.46972656 C75.506415 25.41601681 76.00938036 22.36521271 76.51269531 19.31420898 C76.67833984 18.25911133 76.84398437 17.20401367 77.01464844 16.11694336 C77.18544922 15.09536133 77.35625 14.0737793 77.53222656 13.02124023 C77.68409424 12.0838501 77.83596191 11.14645996 77.99243164 10.18066406 C79.1875919 5.65686497 80.80409878 3.09910668 84.70019531 0.50170898 C86.92550659 0.23428345 86.92550659 0.23428345 89.55126953 0.21118164 C90.53594208 0.19842194 91.52061462 0.18566223 92.53512573 0.17251587 C94.12890549 0.1691774 94.12890549 0.1691774 95.75488281 0.16577148 C97.39543137 0.15578629 97.39543137 0.15578629 99.06912231 0.14559937 C101.3841178 0.13546859 103.69914252 0.13078248 106.01416016 0.13110352 C109.55452695 0.12673449 113.09364325 0.09042917 116.63378906 0.05249023 C118.88248271 0.04662138 121.13118229 0.04265245 123.37988281 0.04077148 C124.43835419 0.02640045 125.49682556 0.01202942 126.58737183 -0.0027771 C130.96755508 0.02442071 133.90313472 0.07541646 137.80883789 2.16430664 C140.05399738 4.93894934 140.65648345 6.85692254 141.28222656 10.36108398 C141.49169922 11.47612305 141.70117188 12.59116211 141.91699219 13.73999023 C142.11357422 14.89885742 142.31015625 16.05772461 142.51269531 17.25170898 C142.72861328 18.42604492 142.94453125 19.60038086 143.16699219 20.81030273 C143.69644511 23.70464538 144.20670348 26.60105605 144.70019531 29.50170898 C144.73983398 28.76533203 144.77947266 28.02895508 144.8203125 27.27026367 C145.01101273 23.92932199 145.2302739 20.59084908 145.45019531 17.25170898 C145.51207031 16.0928418 145.57394531 14.93397461 145.63769531 13.73999023 C145.71503906 12.62495117 145.79238281 11.50991211 145.87207031 10.36108398 C145.96633301 8.82145996 145.96633301 8.82145996 146.0625 7.25073242 C146.86487498 3.79179585 147.94115711 2.70500184 150.70019531 0.50170898 C153.42971802 0.00050354 153.42971802 0.00050354 156.59521484 0 C157.78390167 -0.00938095 158.9725885 -0.0187619 160.19729614 -0.02842712 C161.47958099 -0.01719315 162.76186584 -0.00595917 164.08300781 0.00561523 C165.42097044 0.0054601 166.75893352 0.00396868 168.09689331 0.00120544 C170.90301358 -0.0001786 173.70862285 0.01236927 176.51464844 0.03515625 C180.08532907 0.06337698 183.65515049 0.06084908 187.22589302 0.04806614 C189.99202606 0.041054 192.75796618 0.04896333 195.52407455 0.06132317 C197.47251031 0.06795194 199.42097345 0.06372274 201.36941528 0.05921936 C207.93859199 0.12821952 213.60125626 0.66490805 219.81588745 2.86070251 C221.68404326 3.6090612 221.68404326 3.6090612 223.70019531 3.50170898 C224.61255746 2.77141102 224.61255746 2.77141102 225.54335117 2.02635956 C228.03167217 0.26739146 229.20332157 0.1216923 232.20970154 0.1072998 C233.10828888 0.09595001 234.00687622 0.08460022 234.93269348 0.07290649 C236.40013252 0.0773024 236.40013252 0.0773024 237.8972168 0.08178711 C238.93340149 0.07331757 239.96958618 0.06484802 241.03717041 0.05612183 C244.46533451 0.03270625 247.89305101 0.03173077 251.32128906 0.03295898 C253.70256226 0.02586031 256.08383374 0.01816175 258.46510315 0.0098877 C263.45765945 -0.00356753 268.45005758 -0.00512108 273.44262695 0.00073242 C279.84324764 0.00663011 286.24311024 -0.0239621 292.64358425 -0.06438446 C297.56179398 -0.09022219 302.47982021 -0.09314241 307.39808846 -0.0894928 C309.7580258 -0.09118764 312.1179713 -0.10086494 314.47784233 -0.11863708 C317.77700555 -0.1407487 321.07462179 -0.13116332 324.3737793 -0.11352539 C325.35004776 -0.12678864 326.32631622 -0.14005188 327.33216858 -0.15371704 C334.7107482 -0.06196601 334.7107482 -0.06196601 337.84559631 3.04016113 C338.45761398 3.85247192 339.06963165 4.66478271 339.70019531 5.50170898 C340.31894531 4.86233398 340.93769531 4.22295898 341.57519531 3.56420898 C345.06193306 0.18002235 347.212019 0.37337842 351.9855957 0.36126709 C352.63770082 0.35829597 353.28980595 0.35532485 353.96167183 0.35226369 C356.15707791 0.3435598 358.35242957 0.34206698 360.54785156 0.34057617 C362.1181093 0.33594894 363.68836592 0.33092441 365.25862122 0.32553101 C369.53383084 0.31238996 373.80902473 0.30595794 378.0842514 0.30152035 C380.75679232 0.29859046 383.42932893 0.29448566 386.10186768 0.29001617 C394.46759013 0.27633255 402.83330277 0.26667192 411.19903564 0.26281428 C420.84734389 0.25834075 430.49550996 0.2408293 440.14377499 0.21181369 C447.60463467 0.19015813 455.06545449 0.18010783 462.52634525 0.17877316 C466.98011295 0.17772728 471.43374716 0.17186656 475.88748169 0.15395355 C480.08341599 0.13740735 484.27911745 0.13534896 488.47507286 0.14409256 C490.00926019 0.14485963 491.54346036 0.14056413 493.07761574 0.13063431 C503.35545289 0.06805277 512.99465478 0.40783061 521.70019531 6.50170898 C522.2196875 6.15237305 522.73917969 5.80303711 523.27441406 5.44311523 C523.97179687 4.98807617 524.66917969 4.53303711 525.38769531 4.06420898 C526.0721875 3.61174805 526.75667969 3.15928711 527.46191406 2.69311523 C531.50332429 0.54192829 535.63188269 0.3710454 540.14550781 0.30883789 C541.2101123 0.29277496 542.2747168 0.27671204 543.37158203 0.26016235 C548.20572057 0.21552363 553.03972719 0.17469715 557.87402344 0.15161133 C560.42489722 0.13500916 562.97572368 0.10766396 565.52636719 0.06958008 C569.20955459 0.01491222 572.89165732 -0.00704292 576.57519531 -0.02172852 C577.7148877 -0.04439789 578.85458008 -0.06706726 580.02880859 -0.09042358 C587.85567036 -0.06947041 587.85567036 -0.06947041 591.91650391 2.67700195 C593.91072309 5.83510706 594.34292855 7.51282303 594.36425781 11.22045898 C594.37851807 12.85797119 594.37851807 12.85797119 594.39306641 14.52856445 C594.37066895 15.67470215 594.34827148 16.82083984 594.32519531 18.00170898 C594.31697754 19.16976074 594.30875977 20.3378125 594.30029297 21.54125977 C594.11359559 29.2757112 593.23016225 35.283412 589.59863281 42.18139648 C588.44211146 44.4209228 588.44211146 44.4209228 589.36425781 46.38452148 C589.80511719 47.08319336 590.24597656 47.78186523 590.70019531 48.50170898 C593.58108949 54.13308093 594.14426375 58.59400859 594.09863281 64.87280273 C594.10150299 65.75396255 594.10437317 66.63512238 594.10733032 67.54298401 C594.10936251 69.39780321 594.10389211 71.25264425 594.09130859 73.10742188 C594.07526196 75.92749584 594.09117605 78.74613262 594.11035156 81.56616211 C594.10836861 83.37671211 594.10452384 85.18726123 594.09863281 86.99780273 C594.10470551 87.83137802 594.1107782 88.66495331 594.11703491 89.52378845 C594.03569477 96.38481636 592.80976236 101.94802256 588.32519531 107.37670898 C583.00897766 111.68031375 578.30717916 111.79226554 571.73486328 111.76049805 C570.39500366 111.765755 570.39500366 111.765755 569.02807617 111.77111816 C566.08276545 111.77990344 563.13769587 111.77409861 560.19238281 111.76733398 C558.14405267 111.76868132 556.09572284 111.77062242 554.0473938 111.77313232 C549.75861562 111.77607904 545.46992083 111.77179954 541.18115234 111.76245117 C535.67852093 111.75104253 530.17608432 111.75762793 524.67346001 111.7695961 C520.44591802 111.77681459 516.21842242 111.77452706 511.99087906 111.76934052 C509.96144716 111.76800474 507.93201108 111.76964923 505.90258408 111.77429962 C503.07052149 111.7793662 500.2387771 111.77165336 497.40673828 111.76049805 C496.14429794 111.76657074 496.14429794 111.76657074 494.85635376 111.77276611 C490.95430518 111.74422374 489.02144343 111.7158744 485.70019531 109.50170898 C485.37019531 108.51170898 485.04019531 107.52170898 484.70019531 106.50170898 C483.87588768 107.71968422 483.87588768 107.71968422 483.03492737 108.96226501 C479.37249881 112.57479709 475.13120344 112.1157284 470.23794556 112.16824341 C468.95310272 112.15655121 467.66825989 112.14485901 466.34448242 112.1328125 C464.97093278 112.13795332 463.59738974 112.14523583 462.22386169 112.15449524 C458.50061851 112.17299572 454.77809221 112.16008069 451.05487895 112.14040494 C447.15698471 112.12400887 443.25913553 112.1328325 439.36122131 112.13792419 C432.8167883 112.14244357 426.27264126 112.1265839 419.72827148 112.09863281 C412.16239929 112.06656801 404.59704244 112.06660219 397.03113359 112.08384758 C389.75085421 112.09971046 382.47076375 112.09298159 375.19049263 112.07591057 C372.09285007 112.0690386 368.99535887 112.0700739 365.89771843 112.07745552 C362.25070378 112.0851162 358.60427581 112.07300038 354.95736122 112.04560661 C352.98057004 112.03543441 351.00370844 112.04490706 349.0269165 112.05493164 C347.85066208 112.04220718 346.67440765 112.02948273 345.46250916 112.01637268 C344.44028228 112.01356576 343.4180554 112.01075884 342.36485195 112.00786686 C339.03444999 111.37524907 337.83510902 110.06361462 335.70019531 107.50170898 C335.36697266 108.15147705 335.03375 108.80124512 334.69042969 109.47070312 C332.22718496 111.98440932 330.53556338 111.98520476 327.10095215 112.03184509 C326.36026489 112.02061111 325.61957764 112.00937714 324.85644531 111.99780273 C324.0909436 111.99925797 323.32544189 112.0007132 322.53674316 112.00221252 C320.91947623 112.00055372 319.30219348 111.98899422 317.68505859 111.96826172 C315.20895367 111.93931139 312.7349903 111.94765036 310.25878906 111.96069336 C308.68716407 111.95445564 307.11554584 111.94606443 305.54394531 111.93530273 C304.80325806 111.93823837 304.0625708 111.94117401 303.29943848 111.94419861 C298.2120489 111.85078839 298.2120489 111.85078839 296.00810242 110.34771729 C294.14798174 107.72230283 294.30082596 105.76288199 294.26782227 102.56152344 C294.24802811 101.34048416 294.22823395 100.11944489 294.20783997 98.86140442 C294.19825508 96.8831794 294.19825508 96.8831794 294.18847656 94.86499023 C294.171631 93.50162635 294.15348092 92.13827802 294.13407898 90.77494812 C294.08655878 87.18949236 294.05676291 83.60409961 294.03063965 80.01843262 C294.00084402 76.35843459 293.95431036 72.69865373 293.90917969 69.03881836 C293.8231238 61.85988961 293.75578912 54.6809451 293.70019531 47.50170898 C293.37019531 47.83170898 293.04019531 48.16170898 292.70019531 48.50170898 C291.01410565 48.5737641 289.32518872 48.58556966 287.63769531 48.56420898 C286.71859375 48.55518555 285.79949219 48.54616211 284.85253906 48.53686523 C284.14226562 48.52526367 283.43199219 48.51366211 282.70019531 48.50170898 C282.70241592 49.04691193 282.70463654 49.59211487 282.70692444 50.15383911 C282.72928075 55.89788142 282.74422655 61.64191111 282.75512695 67.38598633 C282.760114 69.52140811 282.76690604 71.65682656 282.77563477 73.79223633 C282.90547418 106.40484248 282.90547418 106.40484248 280.64770508 110.33276367 C277.56103397 112.18546284 274.35265089 111.92881092 270.85644531 111.90014648 C269.70819275 111.90445175 269.70819275 111.90445175 268.53674316 111.90884399 C266.91950744 111.91088398 265.30224701 111.90535861 263.68505859 111.89282227 C261.2090744 111.87676656 258.73472247 111.89267195 256.25878906 111.91186523 C254.68717088 111.90988279 253.1155537 111.90603909 251.54394531 111.90014648 C250.80325806 111.90621918 250.0625708 111.91229187 249.29943848 111.91854858 C244.20886206 111.84886447 244.20886206 111.84886447 242.00236511 110.3429718 C240.15450358 107.73010309 240.33959942 105.83645522 240.35961914 102.65332031 C240.35984573 101.45230179 240.36007233 100.25128326 240.36030579 99.01387024 C240.37578964 97.71692734 240.3912735 96.41998444 240.40722656 95.08374023 C240.41282297 93.74281793 240.41709286 92.40188949 240.42008972 91.06095886 C240.43153513 87.53446468 240.46099913 84.00834214 240.49420166 80.48199463 C240.52490942 76.88249743 240.53859653 73.28294009 240.55371094 69.68334961 C240.58586959 62.62263632 240.63863471 55.56223603 240.70019531 48.50170898 C237.07019531 48.50170898 233.44019531 48.50170898 229.70019531 48.50170898 C229.71179688 49.63608398 229.72339844 50.77045898 229.73535156 51.93920898 C229.74473941 53.46004066 229.75383854 54.98087413 229.76269531 56.50170898 C229.77107422 57.24549805 229.77945313 57.98928711 229.78808594 58.75561523 C229.80443647 62.51623699 229.66361057 66.10736769 229.10644531 69.82983398 C228.71821883 73.33880413 228.78164183 74.24033218 230.13769531 77.25170898 C232.41348704 82.60345666 231.97157437 87.78289169 231.70019531 93.50170898 C231.66901611 94.47043945 231.66901611 94.47043945 231.63720703 95.45874023 C231.5715047 97.49502572 231.48323241 99.52912116 231.38769531 101.56420898 C231.3296875 102.81331055 231.27167969 104.06241211 231.21191406 105.34936523 C230.70019531 108.50170898 230.70019531 108.50170898 229.64038086 110.17163086 C226.67319821 112.20575834 223.62044295 111.94961935 220.14550781 111.93530273 C219.4069455 111.94054459 218.66838318 111.94578644 217.90744019 111.95118713 C216.34569555 111.95760656 214.78390257 111.95627129 213.22216797 111.94775391 C210.84026171 111.93926269 208.46076966 111.96797072 206.07910156 111.99975586 C204.55957103 112.00136857 203.04003627 112.00078901 201.52050781 111.99780273 C200.81201691 112.00903671 200.103526 112.02027069 199.37356567 112.03184509 C194.54583915 111.96431506 192.13503208 110.86441335 188.70019531 107.50170898 C188.17921768 108.15136124 187.65824005 108.80101349 187.12147522 109.47035217 C183.92425359 112.152693 182.09958086 112.00284843 177.9597168 112.00341797 C177.2909552 112.00882095 176.6221936 112.01422394 175.9331665 112.01979065 C173.72875333 112.03227004 171.52564819 112.01579603 169.32128906 111.99780273 C167.78719515 111.99795773 166.25310083 111.99944671 164.7190094 112.00221252 C161.50691376 112.00359609 158.29526489 111.99104482 155.08325195 111.96826172 C150.96486913 111.93985276 146.84722719 111.94262121 142.72878933 111.95535183 C139.5623389 111.96230392 136.39605996 111.95452561 133.22963142 111.9420948 C131.71097534 111.93757738 130.19230087 111.93724605 128.67364311 111.9411602 C126.55247059 111.94406857 124.43232241 111.92758638 122.3112793 111.90576172 C121.10422836 111.90035873 119.89717743 111.89495575 118.65354919 111.88938904 C115.70019531 111.50170898 115.70019531 111.50170898 113.83045959 110.12928772 C112.30833507 107.93743086 111.99592729 106.00054658 111.57519531 103.37670898 C111.2629661 100.13956311 111.2629661 100.13956311 109.70019531 97.50170898 C109.53583984 98.6405957 109.53583984 98.6405957 109.36816406 99.80249023 C109.13033203 101.29329102 109.13033203 101.29329102 108.88769531 102.81420898 C108.66146484 104.2934082 108.66146484 104.2934082 108.43066406 105.80249023 C107.60276955 108.86171542 107.28123939 109.71129267 104.70019531 111.50170898 C101.93653057 111.81209614 99.40254939 111.94594662 96.63769531 111.93530273 C95.84999756 111.94054459 95.0622998 111.94578644 94.25073242 111.95118713 C92.58643777 111.9576065 90.92209774 111.9562714 89.2578125 111.94775391 C86.70914129 111.93923887 84.16270778 111.96801097 81.61425781 111.99975586 C79.99707098 112.00136784 78.37988018 112.0007904 76.76269531 111.99780273 C76.00013428 112.00903671 75.23757324 112.02027069 74.4519043 112.03184509 C71.23918756 111.98944674 69.22573363 111.94233923 66.71459961 109.83691406 C65.45538126 106.93813584 65.35886441 104.80199485 65.40722656 101.64233398 C65.41689453 100.52729492 65.4265625 99.41225586 65.43652344 98.26342773 C65.46166016 97.10456055 65.48679687 95.94569336 65.51269531 94.75170898 C65.53299805 92.99020508 65.53299805 92.99020508 65.55371094 91.19311523 C65.58904751 88.29551601 65.63838552 85.39884472 65.70019531 82.50170898 C64.39888672 83.2384082 64.39888672 83.2384082 63.07128906 83.98999023 C57.25640416 86.48208376 50.96588641 85.81607026 44.76269531 85.68920898 C43.50650391 85.67567383 42.2503125 85.66213867 40.95605469 85.64819336 C37.87032253 85.61299489 34.78548508 85.56375204 31.70019531 85.50170898 C31.68561279 86.18273682 31.67103027 86.86376465 31.65600586 87.56542969 C31.58156835 90.64893114 31.48489449 93.73134465 31.38769531 96.81420898 C31.36513672 97.88606445 31.34257813 98.95791992 31.31933594 100.06225586 C31.28388672 101.0902832 31.2484375 102.11831055 31.21191406 103.17749023 C31.18572998 104.125354 31.1595459 105.07321777 31.13256836 106.04980469 C30.70019531 108.50170898 30.70019531 108.50170898 29.67211914 110.30957031 C26.52152409 112.21428192 23.21243029 111.92861406 19.63769531 111.90014648 C18.45614868 111.90445175 18.45614868 111.90445175 17.25073242 111.90884399 C15.58641846 111.9108842 13.9220805 111.90535731 12.2578125 111.89282227 C9.70941585 111.87676707 7.1626051 111.89267143 4.61425781 111.91186523 C2.99706681 111.90988279 1.37987679 111.9060391 -0.23730469 111.90014648 C-0.99986572 111.90621918 -1.76242676 111.91229187 -2.5480957 111.91854858 C-7.8309132 111.84826969 -7.8309132 111.84826969 -10.00000763 110.24507809 C-11.61852802 108.07421732 -11.68099462 106.91036751 -11.69421387 104.21961975 C-11.70556366 103.34620438 -11.71691345 102.472789 -11.72860718 101.57290649 C-11.72421127 100.1397963 -11.72421127 100.1397963 -11.71972656 98.67773438 C-11.72819611 97.66935013 -11.73666565 96.66096588 -11.74539185 95.62202454 C-11.76883522 92.28101062 -11.76978224 88.94045525 -11.76855469 85.59936523 C-11.7756518 83.28152785 -11.78335012 80.96369224 -11.79162598 78.64585876 C-11.80508767 73.78436399 -11.80663192 68.92303166 -11.80078125 64.06152344 C-11.79488358 57.82555491 -11.82547252 51.5903645 -11.86589813 45.35454655 C-11.89172275 40.5667652 -11.89465728 35.7791725 -11.89100647 30.9913311 C-11.89270261 28.69197064 -11.90239233 26.39260191 -11.92015076 24.0933094 C-11.94223627 20.88003293 -11.93269061 17.66834822 -11.91503906 14.45507812 C-11.92830231 13.50169556 -11.94156555 12.54831299 -11.95523071 11.56604004 C-11.87373224 5.19499041 -11.87373224 5.19499041 -9.15509033 1.91098022 C-5.84421997 0.27684797 -3.68551613 0.0005574 0 0 Z M154.70019531 7.50170898 C154.70019531 35.22170898 154.70019531 62.94170898 154.70019531 91.50170898 C163.61019531 91.50170898 172.52019531 91.50170898 181.70019531 91.50170898 C181.70019531 82.59170898 181.70019531 73.68170898 181.70019531 64.50170898 C184.01019531 64.50170898 186.32019531 64.50170898 188.70019531 64.50170898 C188.95414063 65.33573242 189.20808594 66.16975586 189.46972656 67.02905273 C191.46416872 73.55020631 193.51091964 80.04334575 195.70019531 86.50170898 C196.36019531 86.50170898 197.02019531 86.50170898 197.70019531 86.50170898 C197.70019531 88.15170898 197.70019531 89.80170898 197.70019531 91.50170898 C206.28019531 91.50170898 214.86019531 91.50170898 223.70019531 91.50170898 C223.74765796 82.74011561 223.74765796 82.74011561 220.70019531 75.50170898 C220.18547308 74.17398959 219.685806 72.8403501 219.20019531 71.50170898 C217.82465636 67.77538123 216.2921925 64.1405597 214.70019531 60.50170898 C216.19759115 59.32983398 217.69498698 58.15795898 219.19238281 56.98608398 C222.5499231 53.68073344 222.94240999 50.50865355 223.02938843 45.86611938 C223.03161407 45.14000458 223.03383972 44.41388977 223.03613281 43.66577148 C223.04278961 42.90879974 223.04944641 42.151828 223.05630493 41.37191772 C223.0664113 39.77327904 223.07112257 38.17459833 223.07080078 36.57592773 C223.07516856 34.14161946 223.11149075 31.70913356 223.14941406 29.27514648 C223.15528396 27.71786098 223.1592522 26.16056691 223.16113281 24.60327148 C223.17550385 23.88120514 223.18987488 23.15913879 223.2046814 22.41519165 C223.15871919 17.28088985 222.23778587 14.24518745 218.70019531 10.50170898 C211.9477844 6.68797402 204.31202852 7.10760469 196.79003906 7.20874023 C195.71790161 7.21176147 194.64576416 7.21478271 193.5411377 7.21789551 C189.57322428 7.23347687 185.60544914 7.27536 181.63769531 7.31420898 C172.74832031 7.37608398 163.85894531 7.43795898 154.70019531 7.50170898 Z M-4.29980469 8.50170898 C-4.32292796 19.17590597 -4.34071969 29.85009704 -4.35161686 40.52431393 C-4.35684572 45.4802482 -4.36394342 50.4361654 -4.37524414 55.39208984 C-4.38607291 60.17069734 -4.3920815 64.94928837 -4.39468193 69.72790718 C-4.3965362 71.55524518 -4.40015684 73.38258223 -4.40553474 75.20991325 C-4.41274505 77.76024227 -4.41379564 80.31050235 -4.41333008 82.86083984 C-4.41692535 83.62400513 -4.42052063 84.38717041 -4.42422485 85.17346191 C-4.73116709 88.62713062 -4.73116709 88.62713062 -3.29980469 91.50170898 C-1.38522187 91.60142684 0.53301848 91.63251487 2.45019531 91.63452148 C3.61550781 91.63581055 4.78082031 91.63709961 5.98144531 91.63842773 C7.82222656 91.63262695 7.82222656 91.63262695 9.70019531 91.62670898 C10.92738281 91.63057617 12.15457031 91.63444336 13.41894531 91.63842773 C14.58425781 91.63713867 15.74957031 91.63584961 16.95019531 91.63452148 C18.02785156 91.63339355 19.10550781 91.63226563 20.21582031 91.63110352 C22.64239528 91.78263269 22.64239528 91.78263269 23.70019531 90.50170898 C23.78767739 88.57503391 23.80716865 86.64519037 23.79785156 84.71655273 C23.79301758 82.96181641 23.79301758 82.96181641 23.78808594 81.17163086 C23.77970703 79.93993164 23.77132812 78.70823242 23.76269531 77.43920898 C23.75818359 76.20364258 23.75367187 74.96807617 23.74902344 73.69506836 C23.73719139 70.63056782 23.72070704 67.56616177 23.70019531 64.50170898 C24.69873535 64.52265625 25.69727539 64.54360352 26.72607422 64.56518555 C30.44955974 64.63787599 34.17298321 64.68361319 37.89697266 64.72143555 C39.50515306 64.74148525 41.11326115 64.76873262 42.72119141 64.8034668 C45.03989551 64.85228162 47.35763156 64.87474327 49.67675781 64.89233398 C50.74586899 64.9233017 50.74586899 64.9233017 51.83657837 64.95489502 C56.94060142 64.9571619 59.78653583 63.72849319 63.70019531 60.50170898 C65.79039684 57.36640669 65.94765481 56.68339128 65.92724609 53.12207031 C65.92709503 52.24138382 65.92694397 51.36069733 65.92678833 50.45332336 C65.91646576 49.50636093 65.90614319 48.5593985 65.89550781 47.58374023 C65.89126297 46.12516853 65.89126297 46.12516853 65.88693237 44.63713074 C65.87573131 41.52936533 65.85062679 38.42188739 65.82519531 35.31420898 C65.81516542 33.20809335 65.80603959 31.10197321 65.79785156 28.99584961 C65.7757922 23.83102519 65.74126277 18.66641584 65.70019531 13.50170898 C65.04019531 13.50170898 64.38019531 13.50170898 63.70019531 13.50170898 C63.20519531 12.01670898 63.20519531 12.01670898 62.70019531 10.50170898 C58.93067807 8.46477788 55.67491729 8.25741276 51.44116211 8.2746582 C50.20025314 8.27480927 48.95934418 8.27496033 47.68083191 8.27511597 C46.33702431 8.28532756 44.99321836 8.29575952 43.64941406 8.30639648 C42.26650701 8.31012967 40.8835973 8.3129752 39.50068665 8.31497192 C35.87239191 8.32258436 32.24425894 8.34221207 28.61602783 8.36437988 C24.90907987 8.38488999 21.20210561 8.39398466 17.49511719 8.40405273 C10.23006972 8.42546044 2.96515524 8.45956724 -4.29980469 8.50170898 Z M86.70019531 8.50170898 C85.34872636 12.55611585 84.45259009 15.27551937 84.02441406 19.31030273 C83.86972656 20.65995117 83.86972656 20.65995117 83.71191406 22.03686523 C83.60492188 22.99463867 83.49792969 23.95241211 83.38769531 24.93920898 C82.41117984 33.08376353 81.05062902 41.01138755 79.20019531 49.00170898 C77.36785903 56.96674864 75.93677219 64.89473369 74.88769531 73.00170898 C74.76394531 73.95110352 74.64019531 74.90049805 74.51269531 75.87866211 C73.90367492 80.86188188 73.70019531 85.42150755 73.70019531 90.50170898 C82.61019531 90.50170898 91.52019531 90.50170898 100.70019531 90.50170898 C100.70019531 87.53170898 100.70019531 84.56170898 100.70019531 81.50170898 C101.36019531 81.50170898 102.02019531 81.50170898 102.70019531 81.50170898 C103.03019531 79.19170898 103.36019531 76.88170898 103.70019531 74.50170898 C108.32019531 74.50170898 112.94019531 74.50170898 117.70019531 74.50170898 C118.36019531 80.11170898 119.02019531 85.72170898 119.70019531 91.50170898 C128.61019531 91.50170898 137.52019531 91.50170898 146.70019531 91.50170898 C146.70019531 85.97280404 146.52518814 81.3641624 145.70019531 76.00170898 C145.51457031 74.77452148 145.32894531 73.54733398 145.13769531 72.28295898 C144.92113281 70.90624023 144.92113281 70.90624023 144.70019531 69.50170898 C143.21519531 69.00670898 143.21519531 69.00670898 141.70019531 68.50170898 C141.88501465 67.64794678 142.06983398 66.79418457 142.26025391 65.91455078 C142.73191043 62.2556792 142.41077576 59.51428339 141.73925781 55.89624023 C141.51496094 54.66583008 141.29066406 53.43541992 141.05957031 52.16772461 C140.81722656 50.89606445 140.57488281 49.6244043 140.32519531 48.31420898 C140.09058594 47.03094727 139.85597656 45.74768555 139.61425781 44.42553711 C138.45706677 37.88847426 138.45706677 37.88847426 136.70019531 31.50170898 C136.57644531 30.24358398 136.45269531 28.98545898 136.32519531 27.68920898 C135.54661203 21.22696777 134.06401488 14.8662003 132.70019531 8.50170898 C117.52019531 8.50170898 102.34019531 8.50170898 86.70019531 8.50170898 Z M230.70019531 8.50170898 C230.70019531 14.77170898 230.70019531 21.04170898 230.70019531 27.50170898 C236.31019531 27.83170898 241.92019531 28.16170898 247.70019531 28.50170898 C248.03019531 49.29170898 248.36019531 70.08170898 248.70019531 91.50170898 C257.28019531 91.50170898 265.86019531 91.50170898 274.70019531 91.50170898 C276.06258607 88.77692746 275.81989489 86.63330043 275.8137207 83.58325195 C275.81364517 82.34211639 275.81356964 81.10098083 275.81349182 79.82223511 C275.80838482 78.4627885 275.80316882 77.10334229 275.79785156 75.74389648 C275.79598673 74.35670014 275.79456314 72.96950314 275.79356384 71.58230591 C275.78974379 67.92936386 275.77991787 64.27646151 275.76885986 60.62353516 C275.75863475 56.89673398 275.75406386 53.16992639 275.74902344 49.44311523 C275.73829514 42.12929295 275.72070248 34.81551158 275.70019531 27.50170898 C280.32019531 27.50170898 284.94019531 27.50170898 289.70019531 27.50170898 C289.70019531 25.85170898 289.70019531 24.20170898 289.70019531 22.50170898 C290.36019531 22.50170898 291.02019531 22.50170898 291.70019531 22.50170898 C294.91552439 17.14282718 294.70019531 15.41363226 294.70019531 8.50170898 C273.58019531 8.50170898 252.46019531 8.50170898 230.70019531 8.50170898 Z M301.70019531 8.50170898 C301.70019531 35.89170898 301.70019531 63.28170898 301.70019531 91.50170898 C310.28019531 91.50170898 318.86019531 91.50170898 327.70019531 91.50170898 C327.70019531 83.61747721 327.66200129 76.34715156 326.70019531 68.62670898 C326.04498952 63.20798002 325.5836782 57.96344852 325.70019531 52.50170898 C327.18519531 52.00670898 327.18519531 52.00670898 328.70019531 51.50170898 C329.25707031 53.23420898 329.25707031 53.23420898 329.82519531 55.00170898 C333.97367844 67.3502312 338.68249141 78.94771749 344.70019531 90.50170898 C354.60019531 90.50170898 364.50019531 90.50170898 374.70019531 90.50170898 C374.70019531 63.44170898 374.70019531 36.38170898 374.70019531 8.50170898 C365.79019531 8.50170898 356.88019531 8.50170898 347.70019531 8.50170898 C347.70019531 14.27376295 347.76534384 19.05742271 348.57519531 24.62670898 C348.75566406 25.89901367 348.93613281 27.17131836 349.12207031 28.48217773 C349.21681641 29.13621582 349.3115625 29.79025391 349.40917969 30.46411133 C349.9073726 33.95229763 350.36395188 37.44598059 350.82519531 40.93920898 C351.0765625 42.82446289 351.0765625 42.82446289 351.33300781 44.74780273 C351.45417969 45.6565918 351.57535156 46.56538086 351.70019531 47.50170898 C349.79785156 47.15405273 349.79785156 47.15405273 347.70019531 46.50170898 C345.56847294 43.17622209 344.45448028 39.76646755 343.38769531 36.00170898 C341.80236139 30.44884626 339.53825863 25.26671635 337.20019531 19.99389648 C335.57657448 16.21390424 334.14469538 12.35370918 332.70019531 8.50170898 C322.47019531 8.50170898 312.24019531 8.50170898 301.70019531 8.50170898 Z M380.70019531 8.50170898 C380.67106121 21.03002707 380.67106121 21.03002707 380.65136719 33.55834961 C380.64541265 38.67562917 380.63840387 43.79289067 380.62475586 48.91015625 C380.61381042 53.04042444 380.60789402 57.17067323 380.60531807 61.30095482 C380.60348467 62.86883029 380.59990497 64.43670481 380.59446526 66.00457191 C380.58709957 68.21758868 380.5862108 70.43052745 380.58666992 72.64355469 C380.58444931 73.89820023 380.5822287 75.15284576 380.5799408 76.44551086 C380.72907744 81.47590621 381.24456461 86.48977126 381.70019531 91.50170898 C401.50019531 91.50170898 421.30019531 91.50170898 441.70019531 91.50170898 C441.70019531 85.56170898 441.70019531 79.62170898 441.70019531 73.50170898 C438.21404152 71.17760645 436.86473558 71.26606122 432.75488281 71.30639648 C431.59601563 71.3128418 430.43714844 71.31928711 429.24316406 71.32592773 C428.03273438 71.34268555 426.82230469 71.35944336 425.57519531 71.37670898 C424.35703125 71.38573242 423.13886719 71.39475586 421.88378906 71.40405273 C418.82241093 71.42794309 415.76140142 71.46209553 412.70019531 71.50170898 C411.70019531 71.50170898 411.70019531 71.50170898 408.70019531 70.50170898 C408.37019531 66.54170898 408.04019531 62.58170898 407.70019531 58.50170898 C417.27019531 58.50170898 426.84019531 58.50170898 436.70019531 58.50170898 C436.70019531 52.23170898 436.70019531 45.96170898 436.70019531 39.50170898 C422.84019531 39.00670898 422.84019531 39.00670898 408.70019531 38.50170898 C408.70019531 35.20170898 408.70019531 31.90170898 408.70019531 28.50170898 C417.94019531 28.17170898 427.18019531 27.84170898 436.70019531 27.50170898 C437.36019531 25.85170898 438.02019531 24.20170898 438.70019531 22.50170898 C439.36019531 22.50170898 440.02019531 22.50170898 440.70019531 22.50170898 C442.79250929 18.31708103 441.70019531 13.18026527 441.70019531 8.50170898 C421.57019531 8.50170898 401.44019531 8.50170898 380.70019531 8.50170898 Z M449.70019531 8.50170898 C449.70019531 35.89170898 449.70019531 63.28170898 449.70019531 91.50170898 C458.28019531 91.50170898 466.86019531 91.50170898 475.70019531 91.50170898 C477.47510077 89.72680353 476.93519504 87.12385996 477.01660156 84.71655273 C477.05849609 83.54672852 477.10039063 82.3769043 477.14355469 81.17163086 C477.18287109 79.93993164 477.2221875 78.70823242 477.26269531 77.43920898 C477.3274707 75.58585937 477.3274707 75.58585937 477.39355469 73.69506836 C477.50003729 70.63073563 477.60204955 67.56631825 477.70019531 64.50170898 C481.05175781 65.06030273 481.05175781 65.06030273 484.70019531 66.50170898 C486.22363281 69.72436523 486.22363281 69.72436523 487.07519531 73.56420898 C487.72607802 77.85278636 487.72607802 77.85278636 489.70019531 81.50170898 C489.84457031 82.26483398 489.98894531 83.02795898 490.13769531 83.81420898 C490.64823626 86.82194639 490.64823626 86.82194639 492.70019531 90.50170898 C500.95019531 90.83170898 509.20019531 91.16170898 517.70019531 91.50170898 C518.9981382 82.5961106 518.9981382 82.5961106 516.51269531 75.43920898 C515.82046875 73.94454102 515.82046875 73.94454102 515.11425781 72.41967773 C514.41429687 70.9752832 514.41429687 70.9752832 513.70019531 69.50170898 C512.92401746 67.75407287 512.15257147 66.00432089 511.38769531 64.25170898 C510.82667096 63.00104599 510.26479293 61.75076294 509.70019531 60.50170898 C510.29832031 60.08920898 510.89644531 59.67670898 511.51269531 59.25170898 C513.87641482 57.36073338 515.19758682 56.14055248 516.70019531 53.50170898 C516.96924822 50.54986689 517.07356862 47.81642167 517.02832031 44.86889648 C517.02551056 43.61932663 517.02551056 43.61932663 517.02264404 42.34451294 C517.01593372 40.58778873 517.00203946 38.8310792 516.98144531 37.07446289 C516.95022762 34.37949811 516.94046667 31.6851181 516.93457031 28.98999023 C516.92540248 27.28295182 516.91502741 25.57591937 516.90332031 23.86889648 C516.89907043 23.06056366 516.89482056 22.25223083 516.89044189 21.41940308 C516.93425 17.32845091 516.93425 17.32845091 515.70019531 13.50170898 C515.04019531 13.50170898 514.38019531 13.50170898 513.70019531 13.50170898 C513.45269531 12.86233398 513.20519531 12.22295898 512.95019531 11.56420898 C511.92038267 9.37829838 511.92038267 9.37829838 509.98321533 8.87989807 C507.2604835 8.42886941 504.68295788 8.38218124 501.921875 8.38818359 C500.7447998 8.38830444 499.56772461 8.38842529 498.35498047 8.3885498 C496.50718994 8.39622375 496.50718994 8.39622375 494.62207031 8.40405273 C493.48592285 8.40505981 492.34977539 8.40606689 491.17919922 8.40710449 C486.93618765 8.41233545 482.69319046 8.42629671 478.45019531 8.43920898 C468.96269531 8.45983398 459.47519531 8.48045898 449.70019531 8.50170898 Z M528.70019531 10.50170898 C527.80633368 13.04946205 527.80633368 13.04946205 527.70019531 15.50170898 C526.71019531 15.83170898 525.72019531 16.16170898 524.70019531 16.50170898 C524.6457553 19.50195845 524.60631171 22.50119937 524.57519531 25.50170898 C524.5584375 26.34088867 524.54167969 27.18006836 524.52441406 28.04467773 C524.47379173 34.57495815 524.92821189 40.50296781 528.32519531 46.25170898 C530.7610454 48.55935643 533.11666933 49.8130615 536.14941406 51.20092773 C540.79109555 53.56797205 545.07427504 56.53169061 549.43066406 59.38061523 C552.55388237 61.51316108 552.55388237 61.51316108 555.56347656 62.84155273 C557.70019531 64.50170898 557.70019531 64.50170898 558.70019531 71.50170898 C547.48019531 71.50170898 536.26019531 71.50170898 524.70019531 71.50170898 C524.70019531 78.10170898 524.70019531 84.70170898 524.70019531 91.50170898 C531.8535054 91.55121023 539.00671538 91.58747687 546.16015625 91.61157227 C548.59279111 91.62161912 551.02541393 91.63525893 553.45800781 91.65258789 C556.95803809 91.67689366 560.45790843 91.68820543 563.95800781 91.69702148 C565.04260284 91.70734406 566.12719788 91.71766663 567.24465942 91.728302 C572.45941131 91.72907385 576.82965218 91.62476625 581.70019531 89.50170898 C581.70019531 88.84170898 581.70019531 88.18170898 581.70019531 87.50170898 C582.69019531 87.50170898 583.68019531 87.50170898 584.70019531 87.50170898 C586.14718924 84.60772112 585.83003956 82.07903921 585.83300781 78.84936523 C585.83396454 78.1934288 585.83492126 77.53749237 585.83590698 76.86167908 C585.83658765 75.47386581 585.83474123 74.08604935 585.83056641 72.69824219 C585.82522503 70.57601745 585.83051071 68.45400517 585.83691406 66.33178711 C585.83625309 64.98347935 585.83497154 63.63517172 585.83300781 62.28686523 C585.83131592 60.44427124 585.83131592 60.44427124 585.82958984 58.56445312 C585.83951334 55.45982679 585.83951334 55.45982679 584.70019531 52.50170898 C582.22595683 50.59132011 582.22595683 50.59132011 579.26269531 48.81420898 C578.27398438 48.1915918 577.28527344 47.56897461 576.26660156 46.92749023 C573.8981201 45.33982801 573.8981201 45.33982801 571.70019531 45.50170898 C571.70019531 44.84170898 571.70019531 44.18170898 571.70019531 43.50170898 C570.72179687 43.02991211 570.72179687 43.02991211 569.72363281 42.54858398 C561.70699538 38.62303291 561.70699538 38.62303291 558.20019531 36.18920898 C555.92661778 34.31521803 555.92661778 34.31521803 553.70019531 34.50170898 C553.37019531 32.19170898 553.04019531 29.88170898 552.70019531 27.50170898 C562.27019531 27.50170898 571.84019531 27.50170898 581.70019531 27.50170898 C585.57313098 20.41851599 585.57313098 20.41851599 585.95019531 13.50170898 C585.89605469 12.07858398 585.89605469 12.07858398 585.84082031 10.62670898 C585.79441406 9.92545898 585.74800781 9.22420898 585.70019531 8.50170898 C578.38617923 8.45098231 571.07220855 8.41596412 563.75805664 8.3918457 C561.27008367 8.38179067 558.7821225 8.36814482 556.29418945 8.35083008 C552.7172555 8.32656032 549.14047786 8.31522079 545.56347656 8.30639648 C543.89603142 8.29091263 543.89603142 8.29091263 542.19490051 8.27511597 C540.63384834 8.27488937 540.63384834 8.27488937 539.04125977 8.2746582 C538.12858841 8.27021698 537.21591705 8.26577576 536.27558899 8.26119995 C533.38774498 8.53088787 531.27335452 9.16708997 528.70019531 10.50170898 Z M145.70019531 36.50170898 C146.70019531 39.50170898 146.70019531 39.50170898 146.70019531 39.50170898 Z " fill="#0C0C0C" transform="translate(60.2998046875,175.498291015625)"/>
<path d="M0 0 C0.99569504 -0.00525696 0.99569504 -0.00525696 2.01150513 -0.01062012 C4.20658827 -0.01942407 6.40134909 -0.01359115 8.59643555 -0.00683594 C10.12477175 -0.00818346 11.65310753 -0.01012472 13.18144226 -0.01263428 C16.38679073 -0.01558412 19.59202777 -0.0112942 22.79736328 -0.00195312 C26.89628434 0.00941247 30.99494264 0.00289956 35.09385395 -0.00909805 C38.25180519 -0.01634516 41.40969478 -0.01401516 44.56764793 -0.00884247 C46.0782493 -0.00751235 47.58885634 -0.00913128 49.09945107 -0.01380157 C51.21749174 -0.01891057 53.33511519 -0.01109456 55.453125 0 C56.6565303 0.00159119 57.85993561 0.00318237 59.09980774 0.00482178 C62.50643114 0.26534899 65.24147853 1.03916773 68.4206543 2.25878906 C69.0806543 1.59878906 69.7406543 0.93878906 70.4206543 0.25878906 C73.47835609 0.05981579 76.44552644 -0.01383473 79.50439453 0 C80.44596405 -0.00350464 81.38753357 -0.00700928 82.3576355 -0.01062012 C85.48158054 -0.01944908 88.60530055 -0.01358368 91.72924805 -0.00683594 C93.89396712 -0.00818237 96.0586859 -0.01012271 98.22340393 -0.01263428 C102.76550163 -0.01558721 107.30752079 -0.01128285 111.84960938 -0.00195312 C117.67853526 0.00943467 123.50727685 0.00288721 129.33619595 -0.00909805 C133.80822646 -0.01631785 138.28021313 -0.01402804 142.75224495 -0.00884247 C144.90169356 -0.00750595 147.05114613 -0.00915375 149.20059013 -0.01380157 C152.20300747 -0.01886798 155.20512461 -0.01115453 158.20751953 0 C159.54716011 -0.00607269 159.54716011 -0.00607269 160.91386414 -0.01226807 C162.13997406 -0.00380859 162.13997406 -0.00380859 163.39085388 0.00482178 C164.10080222 0.00557583 164.81075056 0.00632988 165.54221249 0.00710678 C167.4206543 0.25878906 167.4206543 0.25878906 170.4206543 2.25878906 C174.30277767 13.9051592 171.01054639 30.11893534 170.4206543 42.25878906 C170.61699463 41.09307373 170.81333496 39.9273584 171.015625 38.72631836 C171.74716056 34.40241213 172.49447115 30.08135702 173.24658203 25.76098633 C173.569907 23.8906333 173.8889474 22.01953436 174.20361328 20.14770508 C174.65663551 17.4573951 175.12499423 14.77014324 175.59643555 12.08300781 C175.73406815 11.24541428 175.87170074 10.40782074 176.01350403 9.54484558 C176.1534227 8.76426285 176.29334137 7.98368011 176.4375 7.17944336 C176.55519241 6.49327438 176.67288483 5.80710541 176.79414368 5.10014343 C177.59871749 2.73545006 178.39339259 1.72669386 180.4206543 0.25878906 C182.8112793 -0.12216187 182.8112793 -0.12216187 185.6706543 -0.12939453 C186.74186523 -0.13885101 187.81307617 -0.1483075 188.91674805 -0.15805054 C190.65118164 -0.1489415 190.65118164 -0.1489415 192.4206543 -0.13964844 C193.60788086 -0.14251862 194.79510742 -0.14538879 196.01831055 -0.14834595 C198.53003414 -0.1503887 201.04177357 -0.14484416 203.5534668 -0.13232422 C207.40539001 -0.11627454 211.25626385 -0.13216681 215.1081543 -0.15136719 C217.54565662 -0.14938479 219.98315829 -0.1455412 222.4206543 -0.13964844 C223.57694336 -0.14572113 224.73323242 -0.15179382 225.92456055 -0.15805054 C226.99577148 -0.14859406 228.06698242 -0.13913757 229.1706543 -0.12939453 C230.58604492 -0.12581436 230.58604492 -0.12581436 232.0300293 -0.12216187 C234.84767231 0.32683525 235.71461297 1.01753673 237.4206543 3.25878906 C238.10913086 5.18359375 238.10913086 5.18359375 238.5612793 7.43066406 C238.83125732 8.73970703 238.83125732 8.73970703 239.10668945 10.07519531 C239.29279785 11.04328125 239.47890625 12.01136719 239.6706543 13.00878906 C239.87609863 14.03359375 240.08154297 15.05839844 240.29321289 16.11425781 C242.65984943 28.11215148 244.79016029 40.15770055 246.92163086 52.19921875 C247.06303497 52.99750595 247.20443909 53.79579315 247.35012817 54.61827087 C247.63044321 56.20584787 247.90916277 57.79370744 248.18624878 59.3818512 C248.84120053 63.11228253 249.52657101 66.82965608 250.30297852 70.53686523 C252.06229319 79.02491144 252.7872539 86.90951776 252.2956543 95.57128906 C252.25956055 96.66634766 252.2234668 97.76140625 252.1862793 98.88964844 C251.82705489 106.56098012 251.82705489 106.56098012 250.37231445 109.05883789 C247.29157464 110.95298803 244.08558218 110.68599326 240.5769043 110.65722656 C239.42865173 110.66153183 239.42865173 110.66153183 238.25720215 110.66592407 C236.63996643 110.66796406 235.022706 110.66243869 233.40551758 110.64990234 C230.92953338 110.63384664 228.45518145 110.64975203 225.97924805 110.66894531 C224.40762986 110.66696287 222.83601269 110.66311916 221.2644043 110.65722656 C220.52371704 110.66329926 219.78302979 110.66937195 219.01989746 110.67562866 C213.91313854 110.60572303 213.91313854 110.60572303 211.47607422 108.88891602 C210.04212709 106.67414271 209.67091873 104.66420147 209.2331543 102.07128906 C209.07459961 101.17023438 208.91604492 100.26917969 208.75268555 99.34082031 C208.64311523 98.65375 208.53354492 97.96667969 208.4206543 97.25878906 C208.0906543 97.25878906 207.7606543 97.25878906 207.4206543 97.25878906 C207.31108398 97.94585937 207.20151367 98.63292969 207.08862305 99.34082031 C206.93006836 100.241875 206.77151367 101.14292969 206.6081543 102.07128906 C206.45733398 102.96460938 206.30651367 103.85792969 206.15112305 104.77832031 C205.29768286 107.67636587 204.88692339 108.52605957 202.4206543 110.25878906 C199.66891195 110.58139808 197.14763356 110.72680856 194.39331055 110.72753906 C193.60798447 110.73515259 192.82265839 110.74276611 192.01353455 110.75061035 C190.3534564 110.76140995 188.69331031 110.764265 187.03320312 110.75976562 C184.49518296 110.75879367 181.96019057 110.80040197 179.42260742 110.84472656 C177.80868143 110.84993404 176.19474494 110.85262175 174.58081055 110.85253906 C173.8234108 110.86893433 173.06601105 110.88532959 172.28565979 110.90222168 C168.29864624 110.85002299 166.76766064 110.6095419 163.91064453 107.72167969 C163.41894775 106.90892578 162.92725098 106.09617187 162.4206543 105.25878906 C161.67634155 106.47791992 161.67634155 106.47791992 160.91699219 107.72167969 C158.10278579 110.58184917 156.64706908 110.84915748 152.70811462 110.90222168 C151.97258865 110.88582642 151.23706268 110.86943115 150.47924805 110.85253906 C149.71516129 110.85257935 148.95107452 110.85261963 148.16383362 110.85266113 C146.55249787 110.8473109 144.94116236 110.8297489 143.33007812 110.80078125 C140.86271585 110.75886655 138.39807871 110.75971759 135.93041992 110.76660156 C134.36334365 110.75611054 132.79628145 110.7431729 131.22924805 110.72753906 C130.49169785 110.72733765 129.75414764 110.72713623 128.99424744 110.72692871 C123.91019294 110.60927588 123.91019294 110.60927588 121.47558594 108.86621094 C120.26532211 107.02210609 119.79388295 105.42351528 119.4206543 103.25878906 C118.9669043 104.22816406 118.5131543 105.19753906 118.0456543 106.19628906 C116.4206543 109.25878906 116.4206543 109.25878906 114.4206543 110.25878906 C111.75710878 110.39410337 109.12091607 110.47142699 106.45581055 110.49707031 C105.66669785 110.50514206 104.87758514 110.51321381 104.06455994 110.52153015 C102.39429928 110.53536653 100.72401039 110.54609069 99.05371094 110.55395508 C96.49644757 110.57119942 93.94046676 110.61509058 91.38354492 110.65917969 C89.76180965 110.66930395 88.14006338 110.67782089 86.51831055 110.68457031 C85.75261246 110.7020784 84.98691437 110.71958649 84.19801331 110.73762512 C78.97134123 110.71621113 78.97134123 110.71621113 76.48754883 108.65307617 C75.12611286 105.59778956 74.67504353 102.84502169 74.25268555 99.52441406 C74.08188477 98.22890625 73.91108398 96.93339844 73.73510742 95.59863281 C73.56752707 94.23538382 73.4002127 92.87210211 73.2331543 91.50878906 C73.05522804 90.12973912 72.87620335 88.75083042 72.69604492 87.37207031 C72.26008398 84.00221009 71.83540771 80.63131412 71.4206543 77.25878906 C70.0903418 78.43441406 70.0903418 78.43441406 68.7331543 79.63378906 C64.12401379 83.706983 59.87474456 84.50951135 53.80737305 84.45410156 C51.93662109 84.44443359 51.93662109 84.44443359 50.02807617 84.43457031 C48.73450195 84.4178125 47.44092773 84.40105469 46.1081543 84.38378906 C44.13878906 84.37025391 44.13878906 84.37025391 42.12963867 84.35644531 C38.89312516 84.33290703 35.65698281 84.30002426 32.4206543 84.25878906 C32.43636475 84.93981689 32.4520752 85.62084473 32.46826172 86.32250977 C32.53058651 89.40535187 32.56963688 92.4880615 32.6081543 95.57128906 C32.63329102 96.64314453 32.65842773 97.715 32.68432617 98.81933594 C32.69399414 99.84736328 32.70366211 100.87539062 32.71362305 101.93457031 C32.7293335 102.88243408 32.74504395 103.83029785 32.76123047 104.80688477 C32.4206543 107.25878906 32.4206543 107.25878906 31.41992188 109.06445312 C28.19817019 110.98908485 24.78714327 110.70603397 21.1394043 110.69238281 C20.3295105 110.69762466 19.5196167 110.70286652 18.68518066 110.70826721 C16.97380723 110.71468723 15.26238967 110.71335063 13.55102539 110.70483398 C10.92994841 110.69631925 8.31104738 110.72509029 5.69018555 110.75683594 C4.02742578 110.75844791 2.36466216 110.75787048 0.7019043 110.75488281 C-0.08253052 110.76611679 -0.86696533 110.77735077 -1.6751709 110.78892517 C-7.05913195 110.71981918 -7.05913195 110.71981918 -9.28765869 108.74482727 C-11.12404217 105.21044203 -10.9815298 101.86871573 -10.93579102 97.98046875 C-10.93783539 97.14727112 -10.93987976 96.31407349 -10.94198608 95.45562744 C-10.94499649 92.69708377 -10.92649068 89.93913698 -10.9074707 87.18066406 C-10.90440986 85.25173083 -10.90253621 83.32279538 -10.90179443 81.39385986 C-10.8971877 77.34191471 -10.88276114 73.29016786 -10.8605957 69.23828125 C-10.83254041 64.08781415 -10.82140649 58.93750447 -10.8169136 53.78696823 C-10.81170554 48.83484723 -10.79719049 43.88276422 -10.7824707 38.93066406 C-10.78058998 38.00494347 -10.77870926 37.07922287 -10.77677155 36.12545013 C-10.75314809 27.11100435 -10.6740133 18.09768062 -10.25415039 9.09179688 C-10.19797546 7.81653137 -10.14180054 6.54126587 -10.08392334 5.22735596 C-9.91741272 4.24772888 -9.7509021 3.26810181 -9.5793457 2.25878906 C-5.96260838 -0.15236915 -4.30315846 0.0057011 0 0 Z M-2.5793457 7.25878906 C-2.5793457 34.64878906 -2.5793457 62.03878906 -2.5793457 90.25878906 C6.3306543 90.25878906 15.2406543 90.25878906 24.4206543 90.25878906 C25.70492327 89.19928854 25.70492327 89.19928854 25.53417969 86.75854492 C25.52632446 85.13251343 25.52632446 85.13251343 25.51831055 83.47363281 C25.51347656 81.71889648 25.51347656 81.71889648 25.50854492 79.92871094 C25.50016602 78.69701172 25.49178711 77.4653125 25.4831543 76.19628906 C25.47864258 74.96072266 25.47413086 73.72515625 25.46948242 72.45214844 C25.45765037 69.38764789 25.44116603 66.32324185 25.4206543 63.25878906 C26.45472412 63.27973633 27.48879395 63.30068359 28.55419922 63.32226562 C32.40252758 63.39484195 36.25079583 63.44065224 40.09960938 63.47851562 C41.76312443 63.49859114 43.42656926 63.52585783 45.08984375 63.56054688 C47.4854467 63.60924673 49.88011422 63.63179762 52.27612305 63.64941406 C53.0158989 63.6700592 53.75567474 63.69070435 54.51786804 63.7119751 C58.2095393 63.71356765 60.23357129 63.37938777 63.3671875 61.359375 C66.24261077 58.41797186 66.54872151 56.85179167 66.59765625 52.85668945 C66.61049149 51.945569 66.62332672 51.03444855 66.6365509 50.09571838 C66.64393784 49.10925827 66.65132477 48.12279816 66.65893555 47.10644531 C66.67104317 45.58983559 66.67104317 45.58983559 66.68339539 44.04258728 C66.69723898 41.90153725 66.7079599 39.76046512 66.71582031 37.61938477 C66.73306669 34.33795731 66.77695455 31.0575285 66.82104492 27.77636719 C66.83116865 25.69890066 66.83968575 23.62142555 66.84643555 21.54394531 C66.87269768 20.06729149 66.87269768 20.06729149 66.89949036 18.56080627 C66.89656479 17.64653366 66.89363922 16.73226105 66.890625 15.7902832 C66.89942436 14.58354698 66.89942436 14.58354698 66.90840149 13.35243225 C66.5846061 11.10606531 66.5846061 11.10606531 64.64128113 9.53807068 C60.54937619 7.18076386 57.04602843 7.13559614 52.36694336 7.14526367 C50.50996826 7.14544495 50.50996826 7.14544495 48.61547852 7.14562988 C47.31884277 7.15074585 46.02220703 7.15586182 44.6862793 7.16113281 C43.49115723 7.16213989 42.29603516 7.16314697 41.06469727 7.16418457 C36.60000652 7.16941685 32.13532944 7.18337811 27.6706543 7.19628906 C12.6969043 7.22722656 12.6969043 7.22722656 -2.5793457 7.25878906 Z M76.4206543 7.25878906 C76.4206543 8.24878906 76.4206543 9.23878906 76.4206543 10.25878906 C75.7606543 10.25878906 75.1006543 10.25878906 74.4206543 10.25878906 C74.08877156 19.48635824 75.12598102 28.44473214 76.2956543 37.57128906 C76.47201936 38.99244069 76.64780325 40.41366457 76.82299805 41.83496094 C77.78285631 49.5619257 78.8306963 57.27323514 79.94750977 64.97924805 C80.67573448 70.02684484 81.36062221 75.08018214 82.0456543 80.13378906 C82.7262793 85.14566406 82.7262793 85.14566406 83.4206543 90.25878906 C92.3306543 90.25878906 101.2406543 90.25878906 110.4206543 90.25878906 C113.42375132 79.31893564 116.03255074 68.3482274 118.4206543 57.25878906 C119.0806543 57.25878906 119.7406543 57.25878906 120.4206543 57.25878906 C120.80157227 58.98162109 120.80157227 58.98162109 121.19018555 60.73925781 C122.08631249 64.78733976 122.98710349 68.83436726 123.89038086 72.88085938 C124.22410038 74.37737324 124.55691368 75.87408977 124.88842773 77.37109375 C125.29140999 79.18862595 125.69959112 81.00500326 126.1081543 82.82128906 C126.33889648 83.85382813 126.56963867 84.88636719 126.80737305 85.95019531 C127.19966319 88.20508346 127.19966319 88.20508346 128.4206543 89.25878906 C130.34732937 89.34627114 132.27717291 89.3657624 134.20581055 89.35644531 C135.37563477 89.35322266 136.54545898 89.35 137.75073242 89.34667969 C138.98243164 89.33830078 140.21413086 89.32992187 141.4831543 89.32128906 C142.7187207 89.31677734 143.95428711 89.31226563 145.22729492 89.30761719 C148.29179547 89.29578514 151.35620151 89.27930079 154.4206543 89.25878906 C156.44479725 77.35928198 158.0968365 65.42031569 159.6081543 53.44628906 C159.69850952 52.74020508 159.78886475 52.03412109 159.88195801 51.30664062 C160.14252586 49.26384556 160.39769397 47.22044948 160.65112305 45.17675781 C160.79960693 43.98848389 160.94809082 42.80020996 161.10107422 41.57592773 C161.40280321 38.44407759 161.44477405 35.40201812 161.4206543 32.25878906 C161.9082341 29.82089006 162.63185671 27.62518183 163.4206543 25.25878906 C163.50087428 23.85054014 163.52831407 22.43881676 163.51831055 21.02832031 C163.51508789 20.22587891 163.51186523 19.4234375 163.50854492 18.59667969 C163.50016602 17.76330078 163.49178711 16.92992187 163.4831543 16.07128906 C163.47864258 15.22630859 163.47413086 14.38132812 163.46948242 13.51074219 C163.45770833 11.42672751 163.4397732 9.3427493 163.4206543 7.25878906 C159.62900355 7.22985536 155.83738103 7.21201305 152.0456543 7.19628906 C150.96541992 7.18791016 149.88518555 7.17953125 148.7722168 7.17089844 C147.7409668 7.16767578 146.7097168 7.16445312 145.6472168 7.16113281 C144.21756592 7.15327759 144.21756592 7.15327759 142.7590332 7.14526367 C140.39741023 7.10236308 140.39741023 7.10236308 138.4206543 8.25878906 C138.4206543 21.12878906 138.4206543 33.99878906 138.4206543 47.25878906 C137.7606543 47.25878906 137.1006543 47.25878906 136.4206543 47.25878906 C136.36006836 46.66710937 136.29948242 46.07542969 136.23706055 45.46582031 C136.15327148 44.675625 136.06948242 43.88542969 135.9831543 43.07128906 C135.90194336 42.29398438 135.82073242 41.51667969 135.73706055 40.71582031 C135.14372769 36.10833428 134.05755432 31.60539979 133.01049805 27.08300781 C132.74301758 25.92607422 132.47553711 24.76914063 132.19995117 23.57714844 C131.9221582 22.37896484 131.64436523 21.18078125 131.3581543 19.94628906 C130.93566406 18.12000977 130.93566406 18.12000977 130.50463867 16.25683594 C129.81063621 13.25733378 129.11595133 10.25799135 128.4206543 7.25878906 C125.27484006 7.22990392 122.12905961 7.21202983 118.9831543 7.19628906 C118.08532227 7.18791016 117.18749023 7.17953125 116.26245117 7.17089844 C115.40844727 7.16767578 114.55444336 7.16445312 113.67456055 7.16113281 C112.48842163 7.15327759 112.48842163 7.15327759 111.27832031 7.14526367 C109.40472741 7.05382997 109.40472741 7.05382997 108.4206543 8.25878906 C108.08764067 9.85702921 107.80876422 11.46662122 107.5534668 13.07910156 C107.39136719 14.08328125 107.22926758 15.08746094 107.06225586 16.12207031 C106.89177734 17.1984375 106.72129883 18.27480469 106.5456543 19.38378906 C105.03260442 28.72305471 103.37871844 38.00248586 101.4206543 47.25878906 C100.7606543 47.25878906 100.1006543 47.25878906 99.4206543 47.25878906 C99.4206543 34.05878906 99.4206543 20.85878906 99.4206543 7.25878906 C91.8306543 7.25878906 84.2406543 7.25878906 76.4206543 7.25878906 Z M184.4206543 7.25878906 C184.0906543 8.90878906 183.7606543 10.55878906 183.4206543 12.25878906 C183.25146484 12.9184668 183.08227539 13.57814453 182.90795898 14.2578125 C182.34113894 16.58529602 181.97773189 18.90511656 181.6237793 21.27441406 C179.95493429 32.19284585 178.13375557 43.02437983 175.7956543 53.82128906 C173.18129744 65.97337118 171.24548952 77.79024155 171.4206543 90.25878906 C175.71219452 90.34554527 180.00351097 90.39909796 184.2956543 90.44628906 C186.13063477 90.48399414 186.13063477 90.48399414 188.00268555 90.52246094 C189.16928711 90.53212891 190.33588867 90.54179687 191.5378418 90.55175781 C192.61662598 90.56746826 193.69541016 90.58317871 194.80688477 90.59936523 C195.66942871 90.4869751 196.53197266 90.37458496 197.4206543 90.25878906 C200.93834636 84.98225097 200.52644871 79.39486504 200.4206543 73.25878906 C205.3706543 73.25878906 210.3206543 73.25878906 215.4206543 73.25878906 C216.0806543 78.53878906 216.7406543 83.81878906 217.4206543 89.25878906 C220.91002201 90.13113099 223.08410715 90.33259258 226.58862305 90.17285156 C227.56379883 90.12902344 228.53897461 90.08519531 229.54370117 90.04003906 C230.5549707 89.98847656 231.56624023 89.93691406 232.6081543 89.88378906 C233.63102539 89.83996094 234.65389648 89.79613281 235.70776367 89.75097656 C240.4152999 89.95538725 240.4152999 89.95538725 244.4206543 88.25878906 C244.3504485 78.74927021 242.45365732 69.52062581 240.4831543 60.25878906 C238.53133813 50.95085794 236.78719555 41.67098048 235.4206543 32.25878906 C234.13162627 23.79945647 232.35188007 15.62743406 230.4206543 7.25878906 C215.2406543 7.25878906 200.0606543 7.25878906 184.4206543 7.25878906 Z M168.4206543 47.25878906 C168.4206543 49.23878906 168.4206543 51.21878906 168.4206543 53.25878906 C168.7506543 53.25878906 169.0806543 53.25878906 169.4206543 53.25878906 C169.4206543 51.27878906 169.4206543 49.29878906 169.4206543 47.25878906 C169.0906543 47.25878906 168.7606543 47.25878906 168.4206543 47.25878906 Z M167.4206543 54.25878906 C167.4206543 55.90878906 167.4206543 57.55878906 167.4206543 59.25878906 C167.7506543 59.25878906 168.0806543 59.25878906 168.4206543 59.25878906 C168.4206543 57.60878906 168.4206543 55.95878906 168.4206543 54.25878906 C168.0906543 54.25878906 167.7606543 54.25878906 167.4206543 54.25878906 Z M166.4206543 62.25878906 C167.4206543 65.25878906 167.4206543 65.25878906 167.4206543 65.25878906 Z M163.4206543 87.25878906 C163.4206543 89.56878906 163.4206543 91.87878906 163.4206543 94.25878906 C163.7506543 94.25878906 164.0806543 94.25878906 164.4206543 94.25878906 C164.4206543 91.94878906 164.4206543 89.63878906 164.4206543 87.25878906 C164.0906543 87.25878906 163.7606543 87.25878906 163.4206543 87.25878906 Z " fill="#0B0B0B" transform="translate(230.579345703125,60.7412109375)"/>
<path d="M0 0 C10.83984375 -0.09765625 10.83984375 -0.09765625 14 0 C15.82116003 1.82116003 15.1323508 4.30671764 15.13671875 6.7265625 C15.13285156 7.47679687 15.12898438 8.22703125 15.125 9 C15.12886719 9.75023437 15.13273437 10.50046875 15.13671875 11.2734375 C15.12661053 16.87338947 15.12661053 16.87338947 14 18 C9.33154772 18.14426614 4.67134047 18.04208415 0 18 C0 12.06 0 6.12 0 0 Z " fill="#1E1E1E" transform="translate(84,203)"/>
<path d="M0 0 C0.99128906 -0.00257812 1.98257812 -0.00515625 3.00390625 -0.0078125 C5.4375 0.125 5.4375 0.125 6.4375 1.125 C6.51075168 3.98767567 6.52988205 6.825719 6.5 9.6875 C6.49548828 10.49380859 6.49097656 11.30011719 6.48632812 12.13085938 C6.47450518 14.12893756 6.45656914 16.12697783 6.4375 18.125 C1.8175 18.125 -2.8025 18.125 -7.5625 18.125 C-7.5625 12.515 -7.5625 6.905 -7.5625 1.125 C-4.93920316 -0.18664842 -2.92551375 -0.00762846 0 0 Z " fill="#0E0E0E" transform="translate(263.5625,86.875)"/>
<path d="M0 0 C2.18816601 4.37633202 2.06618848 7.08222592 1.625 11.75 C1.56828125 12.44738281 1.5115625 13.14476562 1.453125 13.86328125 C1.31232128 15.57639312 1.15754028 17.28834611 1 19 C-3.29 19 -7.58 19 -12 19 C-12 13.06 -12 7.12 -12 1 C-6.06 0.505 -6.06 0.505 0 0 Z " fill="#121212" transform="translate(549,202)"/>
<path d="M0 0 C4.29 0 8.58 0 13 0 C13 5.94 13 11.88 13 18 C8.71 18 4.42 18 0 18 C0 12.06 0 6.12 0 0 Z " fill="#141414" transform="translate(242,203)"/>
<path d="M0 0 C0.99 0.33 1.98 0.66 3 1 C3.3389231 4.35362609 3.67011964 7.70797332 4 11.0625 C4.09539062 12.00544922 4.19078125 12.94839844 4.2890625 13.91992188 C4.78225278 18.97512222 5.11270932 23.92103608 5 29 C2.03 29 -0.94 29 -4 29 C-4.77249145 23.59255982 -5.09752461 18.46137814 -5 13 C-4.34 12.67 -3.68 12.34 -3 12 C-2.60806489 9.97304618 -2.60806489 9.97304618 -2.5 7.625 C-2.27058537 4.10348536 -2.04707136 3.07060704 0 0 Z " fill="#262626" transform="translate(170,202)"/>
<path d="M0 0 C0.99 0.33 1.98 0.66 3 1 C3.34731767 3.3319901 3.68049023 5.66412454 4 8 C4.09539062 8.68707031 4.19078125 9.37414062 4.2890625 10.08203125 C5.04404769 16.06798524 5.10140391 21.97210117 5 28 C2.03 28.33 -0.94 28.66 -4 29 C-6.18659218 24.62681564 -6.18659218 24.62681564 -5 21 C-3.38802818 12.99686059 -3.38802818 12.99686059 -3.0625 4.875 C-3.041875 3.92625 -3.02125 2.9775 -3 2 C-2.01 1.34 -1.02 0.68 0 0 Z " fill="#1E1E1E" transform="translate(438,87)"/>
<path d="M0 0 C4.68139254 -0.02465288 9.36274759 -0.04283739 14.04418945 -0.05493164 C15.63794614 -0.05997157 17.23169819 -0.0668035 18.82543945 -0.07543945 C21.11150253 -0.08751999 23.39750467 -0.09323155 25.68359375 -0.09765625 C26.40026718 -0.10281754 27.11694061 -0.10797882 27.85533142 -0.11329651 C29.57063672 -0.11349263 31.28581266 -0.06192007 33 0 C34 1 34 1 34.11352539 2.85766602 C34.10828857 3.64842529 34.10305176 4.43918457 34.09765625 5.25390625 C34.09443359 6.10791016 34.09121094 6.96191406 34.08789062 7.84179688 C34.07532227 9.18854492 34.07532227 9.18854492 34.0625 10.5625 C34.05798828 11.46419922 34.05347656 12.36589844 34.04882812 13.29492188 C34.03700225 15.53001314 34.0205222 17.76497437 34 20 C33.67 20 33.34 20 33 20 C33 14.39 33 8.78 33 3 C29.51336999 2.1283425 26.97099503 1.87129779 23.4296875 1.8671875 C21.83833984 1.86525391 21.83833984 1.86525391 20.21484375 1.86328125 C18.56162109 1.86908203 18.56162109 1.86908203 16.875 1.875 C15.76511719 1.87113281 14.65523438 1.86726562 13.51171875 1.86328125 C12.45339844 1.86457031 11.39507812 1.86585938 10.3046875 1.8671875 C9.33515137 1.86831543 8.36561523 1.86944336 7.36669922 1.87060547 C4.98121134 1.84367824 4.98121134 1.84367824 3 3 C3 2.34 3 1.68 3 1 C2.01 0.67 1.02 0.34 0 0 Z " fill="#A2A2A2" transform="translate(469,246)"/>
<path d="M0 0 C0.33 0 0.66 0 1 0 C1 1.65 1 3.3 1 5 C0.67 5 0.34 5 0 5 C0 3.35 0 1.7 0 0 Z " fill="#000000" transform="translate(442,192)"/>
<path d="" fill="#000000" transform="translate(0,0)"/>
<path d="" fill="#555555" transform="translate(0,0)"/>
<path d="" fill="#808080" transform="translate(0,0)"/>
<path d="" fill="#FFFFFF" transform="translate(0,0)"/>
<path d="" fill="#000000" transform="translate(0,0)"/>
</svg>
