<?xml version="1.0" standalone="no"?>
<!DOCTYPE svg PUBLIC "-//W3C//DTD SVG 20010904//EN"
 "http://www.w3.org/TR/2001/REC-SVG-20010904/DTD/svg10.dtd">
<svg version="1.0" xmlns="http://www.w3.org/2000/svg"
 width="1200.000000pt" height="628.000000pt" viewBox="0 0 1200.000000 628.000000"
 preserveAspectRatio="xMidYMid meet">

<g transform="translate(0.000000,628.000000) scale(0.100000,-0.100000)"
fill="#000000" stroke="none">
<path d="M3887 5199 c-48 -28 -47 -8 -47 -948 l0 -880 24 -28 24 -28 288 -3
c374 -4 374 -4 374 148 0 47 3 135 7 197 l6 112 246 3 c234 3 249 4 298 27 49
22 116 82 141 126 6 11 12 18 15 15 2 -3 20 -133 39 -289 34 -270 37 -284 62
-310 l26 -26 291 -3 290 -3 33 33 c26 27 35 47 46 103 18 99 25 106 39 39 22
-113 31 -134 64 -154 30 -18 52 -20 300 -20 288 0 310 3 335 52 6 12 48 320
92 682 78 643 80 665 80 884 l0 224 -29 29 -29 29 -264 0 c-222 0 -267 -2
-286 -16 -20 -14 -24 -14 -44 0 -31 22 -443 24 -474 2 -17 -12 -22 -12 -39 0
-15 11 -73 14 -286 14 l-267 0 -25 -29 -24 -29 -54 26 -54 27 -590 2 c-393 2
-596 -1 -608 -8z m1151 -91 c67 -16 121 -53 138 -93 11 -28 14 -104 14 -386 0
-387 -3 -411 -57 -465 -57 -57 -102 -64 -405 -64 l-268 0 0 -230 0 -230 -260
0 -260 0 0 740 0 740 526 0 c366 0 539 -4 572 -12z m702 -338 c0 -222 4 -350
10 -350 12 0 10 -12 75 360 31 173 58 321 60 328 4 10 46 12 187 10 l183 -3
67 -345 c36 -190 68 -347 69 -350 2 -3 6 153 9 345 l5 350 228 3 227 2 0 -119
c0 -66 -5 -153 -10 -193 -12 -89 -140 -1148 -140 -1160 0 -4 -112 -8 -249 -8
l-249 0 -16 68 c-8 37 -36 164 -62 282 -25 118 -50 219 -55 224 -13 15 -23
-22 -79 -306 l-53 -268 -253 0 -254 0 -5 23 c-4 19 -84 648 -130 1027 -11 96
-21 365 -16 423 1 4 102 7 226 7 l225 0 0 -350z"/>
<path d="M4460 4610 l0 -140 105 0 105 0 0 140 0 140 -105 0 -105 0 0 -140z"/>
<path d="M7130 5183 l-30 -28 -119 -695 -120 -695 0 -189 c0 -205 5 -232 54
-254 40 -19 557 -17 593 2 39 20 49 46 70 171 15 96 20 110 37 110 17 0 23
-15 41 -115 11 -63 24 -123 29 -133 18 -42 50 -47 330 -47 353 0 346 -4 346
183 0 62 3 146 5 187 5 65 -11 163 -121 764 -69 378 -132 701 -140 717 -9 16
-24 33 -34 39 -13 6 -179 10 -465 10 l-446 0 -30 -27z m894 -80 c3 -10 14 -72
26 -138 12 -66 66 -364 121 -662 55 -300 99 -569 99 -603 l0 -60 -245 0 c-197
0 -247 3 -251 14 -3 7 -15 73 -27 147 l-23 134 -104 0 -103 0 -17 -100 c-10
-55 -20 -121 -24 -148 l-7 -47 -252 2 -252 3 -3 62 c-2 41 11 144 38 295 71
406 108 616 150 858 22 129 43 241 45 248 3 9 95 12 414 12 382 0 410 -1 415
-17z"/>
<path d="M7596 4703 c-8 -46 -46 -373 -46 -390 0 -9 20 -13 65 -13 77 0 72
-27 45 239 -11 107 -20 196 -20 198 0 2 -9 3 -19 3 -14 0 -21 -9 -25 -37z"/>
<path d="M920 3187 c-14 -7 -33 -28 -42 -47 -17 -33 -18 -97 -18 -907 l0 -873
29 -32 29 -33 290 0 c219 0 295 3 313 13 50 27 54 44 57 249 l4 191 241 4
c261 5 294 10 364 64 l34 26 -5 -34 c-3 -18 -8 -119 -11 -224 -10 -307 -23
-297 364 -292 336 4 323 -3 350 173 19 119 21 125 42 125 10 0 19 -1 19 -2 1
-29 42 -233 50 -247 24 -46 25 -46 615 -49 388 -1 570 1 593 9 51 17 72 59 73
149 l1 75 31 -94 c48 -143 30 -136 360 -136 246 0 275 2 299 18 14 10 31 32
37 48 6 17 10 123 10 244 l1 215 -36 77 c-35 78 -35 78 -18 113 14 27 19 75
25 210 4 96 8 176 8 178 1 1 47 1 104 0 l102 -3 3 -521 2 -521 26 -26 c35 -36
69 -39 354 -35 278 3 290 7 309 75 7 24 11 221 11 536 l0 497 90 0 c85 0 92 2
115 26 l25 27 0 -544 c0 -487 2 -547 16 -568 32 -46 66 -51 322 -51 132 0 253
3 271 6 52 11 80 47 83 112 l4 57 13 -32 c36 -89 56 -118 91 -130 55 -18 2350
-17 2395 1 52 22 65 50 66 141 l0 80 34 -95 c37 -105 56 -126 118 -135 23 -3
375 -4 782 -3 681 3 744 5 786 21 66 26 123 79 156 145 l28 57 0 380 0 380
-24 45 c-13 25 -36 61 -52 81 -16 21 -25 40 -19 45 5 5 28 56 51 114 l42 105
4 227 c4 251 0 274 -55 297 -21 9 -154 11 -513 9 l-484 -3 -59 -28 c-32 -15
-74 -43 -93 -63 l-33 -36 -50 45 c-99 89 41 82 -1568 84 -1519 3 -1453 5
-1493 -43 -8 -9 -16 -42 -19 -73 l-5 -56 -23 62 c-13 33 -35 72 -49 85 l-25
23 -933 3 -933 2 -31 -26 c-17 -14 -31 -33 -31 -41 0 -8 -3 -13 -7 -11 -5 2
-31 15 -58 30 -86 45 -133 48 -687 48 l-518 0 -32 -29 -33 -29 -5 -369 c-3
-202 -7 -363 -8 -358 -1 6 -31 169 -67 362 -37 203 -71 363 -80 377 -30 46
-44 47 -509 44 l-438 -3 -27 -30 c-21 -24 -30 -51 -44 -125 -9 -52 -38 -219
-64 -370 l-48 -275 -5 310 c-6 350 -4 342 -85 413 -89 79 -69 76 -710 79 -445
3 -575 0 -595 -10z m1166 -102 c31 -9 63 -28 84 -50 l35 -36 3 -372 c3 -407 1
-426 -56 -480 -60 -58 -82 -61 -389 -65 l-283 -4 0 -224 0 -224 -260 0 -260 0
0 735 0 735 538 0 c445 0 547 -3 588 -15z m1284 8 c0 -14 37 -221 139 -777 64
-350 101 -575 101 -618 l0 -68 -247 2 -247 3 -22 133 c-13 73 -24 138 -26 144
-3 7 -39 10 -103 9 -55 -1 -101 -3 -102 -4 -1 -1 -11 -59 -23 -127 -11 -69
-23 -133 -26 -142 -5 -17 -26 -18 -256 -18 l-250 0 4 103 c3 67 31 254 82 542
43 242 91 517 107 610 16 94 31 180 34 193 l5 22 415 0 c228 0 415 -3 415 -7z
m1446 -20 c48 -25 91 -73 102 -111 4 -15 7 -169 7 -342 0 -280 -2 -319 -17
-347 -19 -34 -85 -93 -105 -93 -7 0 -13 -3 -13 -6 0 -3 36 -89 80 -191 79
-183 80 -186 80 -269 l0 -84 -244 0 -244 0 -55 173 c-30 94 -63 198 -73 230
l-18 57 -48 0 -48 0 0 -230 0 -230 -260 0 -260 0 0 735 0 736 538 -3 c532 -3
537 -3 578 -25z m1361 -58 c-4 -72 -12 -102 -48 -185 l-43 -99 -121 -3 -120
-3 -3 -547 -2 -548 -250 0 -250 0 0 550 0 550 -155 0 -155 0 0 185 0 185 576
0 577 0 -6 -85z m679 20 c13 -33 73 -186 133 -340 88 -223 113 -280 128 -280
21 0 23 -22 -17 313 -17 139 -30 279 -30 312 l0 60 250 0 250 0 0 -735 0 -735
-282 2 -283 3 -130 330 c-114 287 -134 330 -154 333 -20 3 -22 0 -16 -30 12
-72 65 -553 65 -594 l0 -44 -250 0 -250 0 0 735 0 735 281 -2 281 -3 24 -60z
m1879 -42 c0 -99 -1 -103 -41 -180 l-40 -78 -247 -3 -247 -2 0 -85 0 -85 250
0 250 0 0 -180 0 -180 -250 0 -250 0 0 -100 0 -100 290 0 290 0 0 -185 0 -185
-545 0 -545 0 0 735 0 735 543 -2 542 -3 0 -102z m1171 92 c54 -16 95 -49 121
-98 16 -28 18 -68 21 -337 2 -212 0 -318 -9 -347 -12 -46 -70 -110 -106 -119
-13 -4 -23 -7 -23 -9 0 -1 38 -91 85 -199 81 -189 85 -201 85 -272 l0 -74
-248 0 -247 0 -74 230 -74 230 -49 0 -48 0 0 -230 0 -230 -260 0 -260 0 0 735
0 735 518 0 c428 0 527 -3 568 -15z m1334 -72 c0 -76 -5 -98 -37 -184 l-38
-98 -250 -3 -250 -3 -3 -27 c-4 -32 14 -44 314 -226 163 -99 207 -130 230
-165 l29 -42 3 -235 c2 -129 0 -250 -3 -268 -7 -40 -59 -101 -102 -118 -26
-11 -131 -14 -508 -14 l-475 0 0 185 0 185 290 0 290 0 0 43 c0 49 24 31 -302
231 -115 71 -217 140 -228 156 -40 57 -52 137 -48 338 3 172 5 190 26 229 12
24 33 50 47 59 64 42 82 43 558 44 l457 0 0 -87z"/>
<path d="M1480 2590 l0 -140 105 0 105 0 0 140 0 140 -105 0 -105 0 0 -140z"/>
<path d="M2946 2718 c-3 -7 -14 -94 -26 -193 -11 -99 -23 -192 -26 -207 l-6
-28 70 0 69 0 -5 53 c-32 350 -37 382 -55 385 -9 2 -19 -2 -21 -10z"/>
<path d="M4220 2595 l0 -135 95 0 95 0 0 135 0 135 -95 0 -95 0 0 -135z"/>
<path d="M9340 2595 l0 -135 100 0 101 0 -3 133 -3 132 -97 3 -98 3 0 -136z"/>
</g>
</svg>
