<svg xmlns="http://www.w3.org/2000/svg" width="246" height="46" viewBox="0 0 246 46" fill="none">
<path d="M136.76 35H117.72C114.11 35 112.3 33.61 112.3 30.84V5.71999C112.3 2.89999 114.11 1.48999 117.72 1.48999H131.34C134.95 1.48999 136.76 2.89999 136.76 5.71999V11.4H125.85V9.87999H123.21V26.6H125.85V13.98H136.76V35Z" fill="white"/>
<path d="M158.58 45.38C157.35 45.38 156.16 45.01 155.01 44.26C153.73 43.38 153.09 42.36 153.09 41.22V22.44H150.45V35H139.54V1.48999H158.58C162.19 1.48999 164 2.89999 164 5.71999V14.71C164 16.39 163.1 17.55 161.29 18.21C163.1 18.87 164 20.03 164 21.7V36.98H232.54V45.37H158.58V45.38ZM153.09 9.87999H150.45V14.04H153.09V9.87999Z" fill="white"/>
<path d="M191.23 30.83C191.23 33.61 189.42 34.99 185.81 34.99H172.19C168.58 34.99 166.77 33.6 166.77 30.83V5.71999C166.77 2.89999 168.58 1.48999 172.19 1.48999H185.81C189.42 1.48999 191.23 2.89999 191.23 5.71999V30.83ZM180.32 9.87999H177.68V26.6H180.32V9.87999Z" fill="white"/>
<path d="M218.46 30.8C218.46 33.6 216.65 35 213.04 35H199.42C195.81 35 194 33.6 194 30.8V1.41998H204.91V26.6H207.55V1.41998H218.46V30.8Z" fill="white"/>
<path d="M245.689 18.21C245.689 21.03 243.88 22.44 240.27 22.44H232.139V35H221.229V1.48999H240.27C243.88 1.48999 245.689 2.89999 245.689 5.71999V18.21ZM234.789 9.87999H232.149V14.04H234.789V9.87999Z" fill="white"/>
<path d="M234.8 45.32V36.92H245.71V45.32H234.8Z" fill="#45B172"/>
<path d="M13.0397 0.0700073H0.719727V36.36H11.5597V27.86H13.0397C21.6797 27.86 26.2097 20.89 26.2197 14C26.2297 7.11001 21.6997 0.100007 13.0397 0.0700073ZM11.5597 12.03C11.6697 12.03 11.7497 12.03 11.8297 12.02C12.1497 12.01 12.3297 12.01 13.4597 12.03C15.3097 12.07 15.3297 13.96 15.3297 14.17C15.3197 14.95 14.9197 16.27 13.4797 16.26H11.5497V12.03H11.5597Z" fill="#45B172"/>
<path d="M61.3899 0.0700073L56.8499 14.13L56.3099 16.21L51.4399 0.0700073H46.1099L41.3399 16.18L40.7899 14.07L36.2199 0.0700073H25.1299L37.7099 36.37H44.0699L48.7099 22.78L53.3399 36.37H59.8999L72.3299 0.0700073H61.3899Z" fill="#45B172"/>
<path d="M97.4297 36.36V27.96H108.34V36.36H97.4297Z" fill="#45B172"/>
<path d="M81.69 0.0700073H76.4L63.54 36.37H72.73L74.22 32.87L83.81 32.92L85.29 36.37H94.52L81.69 0.0700073ZM76.92 24.61L79.05 19.2L81.07 24.65L76.92 24.61Z" fill="#45B172"/>
</svg>