<svg width="537" height="114" viewBox="0 0 537 114" fill="none" xmlns="http://www.w3.org/2000/svg">
<path d="M36.375 93.3125C29.25 93.3125 23.0208 92.2708 17.6875 90.1875C12.3958 88.0625 8.22917 85.0417 5.1875 81.125C2.14583 77.1667 0.4375 72.4167 0.0625 66.875L0 65.875H17.8125L17.9375 66.5625C18.3542 68.8958 19.3958 70.9167 21.0625 72.625C22.7708 74.2917 24.9792 75.6042 27.6875 76.5625C30.3958 77.4792 33.4583 77.9375 36.875 77.9375C40.375 77.9375 43.375 77.4792 45.875 76.5625C48.4167 75.6042 50.375 74.2708 51.75 72.5625C53.1667 70.8125 53.875 68.7917 53.875 66.5V66.4375C53.875 63.3958 52.6667 61.0208 50.25 59.3125C47.875 57.5625 43.875 56.1042 38.25 54.9375L28.75 53.0625C19.875 51.2708 13.1875 48.25 8.6875 44C4.1875 39.75 1.9375 34.2292 1.9375 27.4375V27.375C1.9375 21.875 3.41667 17.0833 6.375 13C9.33333 8.875 13.3958 5.6875 18.5625 3.4375C23.7292 1.14583 29.6458 0 36.3125 0C43.2708 0 49.2708 1.08333 54.3125 3.25C59.3958 5.41667 63.3542 8.47917 66.1875 12.4375C69.0208 16.3958 70.5833 21 70.875 26.25L70.9375 27.4375H53.125L53.0625 26.6875C52.7292 24.3125 51.8333 22.2917 50.375 20.625C48.9167 18.9167 46.9792 17.6042 44.5625 16.6875C42.1875 15.7708 39.4375 15.3125 36.3125 15.3125C33.1042 15.3125 30.3333 15.7917 28 16.75C25.6667 17.6667 23.875 18.9375 22.625 20.5625C21.4167 22.1875 20.8125 24.0833 20.8125 26.25V26.3125C20.8125 29.1458 22.0208 31.4375 24.4375 33.1875C26.8542 34.9375 30.6458 36.3333 35.8125 37.375L45.375 39.3125C51.6667 40.5625 56.8333 42.2917 60.875 44.5C64.9167 46.7083 67.8958 49.5 69.8125 52.875C71.7708 56.2083 72.75 60.2292 72.75 64.9375V65C72.75 70.7917 71.2917 75.8125 68.375 80.0625C65.5 84.2708 61.3333 87.5417 55.875 89.875C50.4583 92.1667 43.9583 93.3125 36.375 93.3125Z" fill="white"/>
<path d="M85.935 91.75V1.5625H104.185V91.75H85.935ZM128.06 91.75L107.372 62.125L118.935 48.25L149.122 91.75H128.06ZM101.935 72V51.5625H104.56L127.185 24.75H147.872L116.935 59.9375H112.872L101.935 72Z" fill="white"/>
<path d="M176.432 92.8125C171.974 92.8125 168.057 91.9583 164.682 90.25C161.307 88.5 158.662 86.1042 156.745 83.0625C154.87 79.9792 153.932 76.4792 153.932 72.5625V72.4375C153.932 68.3542 154.953 64.875 156.995 62C159.037 59.0833 161.995 56.7917 165.87 55.125C169.745 53.4583 174.453 52.4375 179.995 52.0625L206.12 50.4375V61.8125L182.745 63.3125C179.245 63.5208 176.578 64.3542 174.745 65.8125C172.912 67.2292 171.995 69.125 171.995 71.5V71.625C171.995 74.0833 172.932 76.0208 174.807 77.4375C176.682 78.8125 179.203 79.5 182.37 79.5C185.078 79.5 187.495 78.9792 189.62 77.9375C191.787 76.8542 193.474 75.3958 194.682 73.5625C195.932 71.6875 196.557 69.5833 196.557 67.25V46.9375C196.557 43.9792 195.62 41.6458 193.745 39.9375C191.87 38.1875 189.141 37.3125 185.557 37.3125C182.141 37.3125 179.432 38.0208 177.432 39.4375C175.432 40.8542 174.203 42.6458 173.745 44.8125L173.62 45.375H156.932L156.995 44.625C157.328 40.5 158.682 36.8333 161.057 33.625C163.474 30.4167 166.807 27.9167 171.057 26.125C175.349 24.2917 180.432 23.375 186.307 23.375C192.099 23.375 197.12 24.3125 201.37 26.1875C205.62 28.0208 208.912 30.625 211.245 34C213.62 37.375 214.807 41.3125 214.807 45.8125V91.75H196.557V81.75H196.182C194.932 84.0417 193.307 86.0208 191.307 87.6875C189.349 89.3125 187.12 90.5833 184.62 91.5C182.12 92.375 179.391 92.8125 176.432 92.8125Z" fill="white"/>
<path d="M229.805 91.75V1.5625H248.055V91.75H229.805ZM271.93 91.75L251.242 62.125L262.805 48.25L292.992 91.75H271.93ZM245.805 72V51.5625H248.43L271.055 24.75H291.742L260.805 59.9375H256.742L245.805 72Z" fill="white"/>
<path d="M296.427 91.75L327.927 1.5625H344.552V19.0625H338.802L316.24 91.75H296.427ZM313.365 69.875L317.99 55.75H360.052L364.677 69.875H313.365ZM361.74 91.75L339.177 19.0625V1.5625H350.115L381.552 91.75H361.74Z" fill="white"/>
<path d="M391.8 113.625V24.75H410.05V36.4375H410.487C411.696 33.7292 413.279 31.3958 415.237 29.4375C417.237 27.4792 419.55 25.9792 422.175 24.9375C424.842 23.8958 427.758 23.375 430.925 23.375C436.592 23.375 441.467 24.7708 445.55 27.5625C449.633 30.3125 452.779 34.2917 454.987 39.5C457.196 44.7083 458.3 50.9375 458.3 58.1875V58.25C458.3 65.5 457.196 71.7292 454.987 76.9375C452.821 82.1458 449.717 86.1458 445.675 88.9375C441.633 91.7292 436.8 93.125 431.175 93.125C428.008 93.125 425.071 92.6042 422.362 91.5625C419.654 90.5208 417.3 89.0625 415.3 87.1875C413.3 85.2708 411.675 82.9792 410.425 80.3125H410.05V113.625H391.8ZM424.925 78C427.967 78 430.592 77.2083 432.8 75.625C435.008 74 436.717 71.7083 437.925 68.75C439.133 65.7917 439.737 62.2917 439.737 58.25V58.1875C439.737 54.1042 439.133 50.5833 437.925 47.625C436.717 44.6667 434.987 42.4167 432.737 40.875C430.529 39.2917 427.925 38.5 424.925 38.5C421.967 38.5 419.362 39.3125 417.112 40.9375C414.862 42.5208 413.112 44.7917 411.862 47.75C410.612 50.6667 409.987 54.1667 409.987 58.25V58.3125C409.987 62.3125 410.612 65.7917 411.862 68.75C413.154 71.7083 414.904 74 417.112 75.625C419.362 77.2083 421.967 78 424.925 78Z" fill="white"/>
<path d="M470.36 113.625V24.75H488.61V36.4375H489.047C490.256 33.7292 491.839 31.3958 493.797 29.4375C495.797 27.4792 498.11 25.9792 500.735 24.9375C503.402 23.8958 506.318 23.375 509.485 23.375C515.152 23.375 520.027 24.7708 524.11 27.5625C528.193 30.3125 531.339 34.2917 533.547 39.5C535.756 44.7083 536.86 50.9375 536.86 58.1875V58.25C536.86 65.5 535.756 71.7292 533.547 76.9375C531.381 82.1458 528.277 86.1458 524.235 88.9375C520.193 91.7292 515.36 93.125 509.735 93.125C506.568 93.125 503.631 92.6042 500.922 91.5625C498.214 90.5208 495.86 89.0625 493.86 87.1875C491.86 85.2708 490.235 82.9792 488.985 80.3125H488.61V113.625H470.36ZM503.485 78C506.527 78 509.152 77.2083 511.36 75.625C513.568 74 515.277 71.7083 516.485 68.75C517.693 65.7917 518.297 62.2917 518.297 58.25V58.1875C518.297 54.1042 517.693 50.5833 516.485 47.625C515.277 44.6667 513.547 42.4167 511.297 40.875C509.089 39.2917 506.485 38.5 503.485 38.5C500.527 38.5 497.922 39.3125 495.672 40.9375C493.422 42.5208 491.672 44.7917 490.422 47.75C489.172 50.6667 488.547 54.1667 488.547 58.25V58.3125C488.547 62.3125 489.172 65.7917 490.422 68.75C491.714 71.7083 493.464 74 495.672 75.625C497.922 77.2083 500.527 78 503.485 78Z" fill="white"/>
</svg>
