<?xml version="1.0" encoding="UTF-8"?>
<svg version="1.1" xmlns="http://www.w3.org/2000/svg" width="432" height="240">
<path d="M0 0 C9.57 0 19.14 0 29 0 C24.3007101 12.72630661 19.29293907 25.30689418 14.1875 37.875 C13.35085803 39.93936552 12.51443604 42.00382021 11.67822266 44.06835938 C9.12122823 50.37988615 6.56086072 56.69004117 4 63 C-1.3881782 76.27827213 -6.77438534 89.55730478 -12.13226318 102.84783936 C-12.69086325 104.23327911 -13.24979668 105.61858453 -13.80914307 107.00372314 C-15.36300437 110.85229643 -16.90484504 114.70543636 -18.4375 118.5625 C-18.78506348 119.42359375 -19.13262695 120.2846875 -19.49072266 121.171875 C-22.52089379 128.86734845 -24.75050549 135.77262417 -23 144 C-19.20172424 145.0407143 -17.2601293 145.12153595 -13.8125 143.1875 C4.19250894 132.2537652 19.25566784 108.3636724 26.73828125 89.06640625 C30.98678624 78.74109226 36.48698293 69.28926976 44 61 C44.76054687 60.14664063 45.52109375 59.29328125 46.3046875 58.4140625 C56.01498413 48.08329963 67.11090075 41.7813937 81.375 40.7578125 C92.5193949 40.53392957 104.39881483 40.84074914 114 47 C119.51898954 52.87505339 118.02711156 60.3850159 117.81298828 67.8737793 C117.75145997 70.13387161 117.70918234 72.39375638 117.66796875 74.65429688 C117.3578488 87.68505289 116.25871901 100.88222447 110.4375 112.75 C110.13392578 113.40742188 109.83035156 114.06484375 109.51757812 114.7421875 C108.07059176 117.85683353 106.55438176 120.93763594 105 124 C114.32130353 123.69931279 120.8841249 120.12883258 127.6875 113.8125 C135.41167747 105.35407131 139.77791948 95.39656994 143.8125 84.8125 C144.58116778 82.83607578 145.35412279 80.86136311 146.12734985 78.88671875 C146.64864093 77.55486691 147.16864348 76.22251 147.68734741 74.88964844 C150.27229968 68.25814779 152.99641393 61.68832159 155.75 55.125 C156.39545776 53.58356323 156.39545776 53.58356323 157.05395508 52.01098633 C158.03403781 49.67317989 159.01668933 47.33645056 160 45 C153.73 45 147.46 45 141 45 C142.08927353 39.55363233 143.8829823 35.12181701 146 30 C152.93 30 159.86 30 167 30 C167.33 28.35 167.66 26.7 168 25 C168.72098091 22.99917131 169.48658911 21.01411549 170.28515625 19.04296875 C170.68871338 18.04031982 171.09227051 17.0376709 171.50805664 16.00463867 C172.02102295 14.74498291 172.53398926 13.48532715 173.0625 12.1875 C174.691875 8.165625 176.32125 4.14375 178 0 C187.57 0 197.14 0 207 0 C203.37859133 9.68516272 199.72656663 19.35476872 196 29 C201.94 29.33 207.88 29.66 214 30 C209.125 42.75 209.125 42.75 208 45 C201.73 45.33 195.46 45.66 189 46 C181.42039825 64.2665965 173.90943065 82.56168007 166.51287842 100.90322876 C165.71864933 102.86949801 164.92169294 104.83466805 164.12188721 106.79867554 C155.71715846 124.82289305 155.71715846 124.82289305 155 144 C159.97123794 145.52961167 163.072287 144.69006636 167.57421875 142.48828125 C172.27101812 139.60667004 176.1183358 135.8816642 180 132 C180.66773438 131.33226562 181.33546875 130.66453125 182.0234375 129.9765625 C190.66476113 120.77090753 197.39500843 109.71199845 204 99 C208.50802601 100.25805377 211.4912812 101.90407165 215 105 C214.51915013 110.53836011 212.44755985 114.13531573 209.5 118.6875 C209.05076172 119.39156982 208.60152344 120.09563965 208.13867188 120.82104492 C204.17921179 126.92242813 199.80300335 132.53679001 195 138 C194.20851563 138.93585938 193.41703125 139.87171875 192.6015625 140.8359375 C183.29899798 151.54709223 170.62521312 162.15233073 156 164 C145.66964721 164.6578951 137.11502297 163.89201838 128.8125 157.25 C123.66913533 150.86513351 124.78996422 142.75965524 125 135 C124.50371094 135.26554688 124.00742187 135.53109375 123.49609375 135.8046875 C122.81675781 136.15789062 122.13742187 136.51109375 121.4375 136.875 C120.44556641 137.39707031 120.44556641 137.39707031 119.43359375 137.9296875 C113.22562245 140.65999912 107.72474974 141.27343059 101.0625 141.125 C100.28326172 141.11597656 99.50402344 141.10695312 98.70117188 141.09765625 C96.80064553 141.07433691 94.90027992 141.03847586 93 141 C92.59587891 141.88751953 92.59587891 141.88751953 92.18359375 142.79296875 C86.62015952 153.16702927 73.74503517 159.5202911 63 163 C53.03758372 165.54359565 42.68473872 164.47217011 33.5859375 159.74609375 C23.80887588 153.74579005 19.94898422 145.48402891 16 135 C15.46632813 135.68964844 14.93265625 136.37929687 14.3828125 137.08984375 C4.62851359 149.39241107 -6.91115253 161.13976045 -23 164 C-31.85038775 164.8351611 -40.19133892 164.16001943 -47.4375 158.625 C-51.98508995 153.96649322 -52.36339758 149.43671478 -52.375 143.125 C-52.39949219 142.46242187 -52.42398438 141.79984375 -52.44921875 141.1171875 C-52.51603981 129.08939644 -47.59579254 117.2496765 -43.0625 106.3125 C-42.55416395 105.0662157 -42.0468039 103.81953297 -41.5402832 102.57250977 C-40.37818332 99.71433352 -39.21129141 96.85816775 -38.04199219 94.00292969 C-35.69895138 88.27269519 -33.38449923 82.53099787 -31.0703125 76.7890625 C-30.18376748 74.58975795 -29.29721132 72.39045789 -28.41064453 70.19116211 C-27.96271545 69.07998016 -27.51478638 67.96879822 -27.05328369 66.82394409 C-18.06492309 44.53741304 -9.0371968 22.26676446 0 0 Z M69.9375 66.5 C59.43814539 77.77860359 53.04013389 92.30678767 48.1875 106.75 C47.89746094 107.61286621 47.60742188 108.47573242 47.30859375 109.36474609 C44.64613651 117.58602474 42.71064476 125.62483057 42.75 134.3125 C42.74484375 135.46363281 42.7396875 136.61476563 42.734375 137.80078125 C42.99521973 140.94242586 43.66061909 143.16710308 45 146 C55.43276639 144.58916326 60.90207578 141.19015817 68.55859375 134.09765625 C70.27808438 132.06755311 70.27808438 132.06755311 69.79296875 129.421875 C69.21475166 127.65589178 68.5651306 125.91282649 67.875 124.1875 C66.48382981 119.11966574 67.12868351 114.9604621 69.25 110.1875 C71.33080139 107.58649826 72.96348933 106.38023212 76 105 C77.175625 104.95875 78.35125 104.9175 79.5625 104.875 C82.92069866 104.3765476 82.92069866 104.3765476 84.1953125 102.57421875 C89.06925957 92.69200324 93.18166998 76.88948415 89.8125 66.25 C87.87968145 62.7842564 86.57466379 61.59919169 83 60 C77.91968173 60 73.43071709 63.17052747 69.9375 66.5 Z " fill="#FFFFFF" transform="translate(217,21)"/>
<path d="M0 0 C24.53139852 6.32153865 24.53139852 6.32153865 48.27929688 0.83496094 C49.48972656 0.06152344 49.48972656 0.06152344 50.72460938 -0.72753906 C57.48281628 -4.82645153 63.05392349 -6.0010719 70.84960938 -5.72753906 C71.68880336 -3.45871819 72.52112661 -1.1877688 73.34960938 1.08496094 C73.58808594 1.72755859 73.8265625 2.37015625 74.07226562 3.03222656 C75.12029683 5.92179832 75.84960938 8.17322154 75.84960938 11.27246094 C73.99414062 12.1188151 72.13867188 12.96516927 70.28320312 13.81152344 C63.66334856 17.78556133 59.06746755 23.17908987 54.53710938 29.33496094 C53.39148436 30.86246095 52.24564938 32.3898035 51.09960938 33.91699219 C50.54402344 34.66287598 49.9884375 35.40875977 49.41601562 36.17724609 C47.31892978 38.98229452 45.18054819 41.75264558 43.03710938 44.52246094 C36.64248638 52.82823944 30.29968263 61.17349083 23.95068359 69.51416016 C21.89934265 72.20717085 19.84561033 74.89833835 17.79101562 77.58886719 C11.22990401 86.18395534 4.69649813 94.79744455 -1.77539062 103.45996094 C-7.12812595 110.62287109 -12.57012903 117.70842134 -18.08129883 124.75 C-21.9405825 129.68944424 -25.72193511 134.68044742 -29.46289062 139.70996094 C-34.18207912 146.0522252 -39.068104 152.21478597 -44.15039062 158.27246094 C-39.01867202 164.72376433 -33.01488017 170.11782953 -26.93115234 175.64013672 C-25.16505172 177.25902194 -23.42227924 178.89949158 -21.68554688 180.54980469 C-2.09692106 200.09115116 -2.09692106 200.09115116 23.09960938 208.95996094 C33.37448632 208.22604116 40.36502983 203.50211542 48.18554688 197.19824219 C50.56834942 195.47577642 51.98780884 194.67257049 54.84960938 194.27246094 C59.92476733 199.87769095 64.95956283 205.50471372 69.84960938 211.27246094 C65.65203081 221.51270754 52.27203216 227.24842766 42.71411133 231.50390625 C31.37133087 236.17944283 16.9073492 236.05867112 5.53710938 231.52636719 C-14.81910082 222.02877493 -30.99955258 206.38945241 -47.12695312 191.07714844 C-52.06226294 186.39457142 -57.08993727 181.81921817 -62.15039062 177.27246094 C-65.39845559 178.79829611 -68.29317109 180.65641641 -71.27539062 182.64746094 C-84.44138514 191.05761148 -98.84927482 194.45585379 -114.27539062 191.14746094 C-124.08099558 188.42932692 -130.90426796 182.767309 -136.40429688 174.35449219 C-140.49685133 166.75403392 -140.39243083 157.67423345 -138.49023438 149.40136719 C-135.11764899 140.04280775 -129.32806879 133.4013508 -120.77539062 128.46386719 C-114.57752353 125.65084715 -108.97048362 124.93919566 -102.27539062 125.02246094 C-101.07849609 125.0347876 -101.07849609 125.0347876 -99.85742188 125.04736328 C-86.50752489 125.30136091 -77.60383572 129.62233437 -67.84179688 138.85449219 C-66.09547848 140.49473224 -66.09547848 140.49473224 -63.15039062 141.27246094 C-62.82748047 140.49902344 -62.82748047 140.49902344 -62.49804688 139.70996094 C-60.58126245 136.24308129 -58.09337498 133.33032944 -55.58789062 130.27246094 C-51.19324139 124.84369988 -46.91271927 119.35734815 -42.74804688 113.74902344 C-39.31980502 109.14184499 -35.82302548 104.58663777 -32.33789062 100.02246094 C-27.58300936 93.79143415 -22.84297839 87.55054638 -18.15039062 81.27246094 C-10.14651959 70.56829125 -2.01976857 59.95733432 6.09277344 49.33544922 C7.58661164 47.37941658 9.08010878 45.42312343 10.57324219 43.46655273 C11.98063378 41.62234589 13.38880562 39.77873417 14.79785156 37.93579102 C15.43110352 37.10587646 16.06435547 36.27596191 16.71679688 35.42089844 C17.2747998 34.6904834 17.83280273 33.96006836 18.40771484 33.20751953 C19.60606213 31.59930744 20.73710944 29.94121084 21.84960938 28.27246094 C21.11661621 28.14718018 20.38362305 28.02189941 19.62841797 27.89282227 C5.07761649 25.39052019 -9.36879472 22.69532349 -23.73632812 19.28808594 C-34.59608246 16.74907356 -46.64461646 15.03575696 -57.06054688 19.94042969 C-61.59560243 22.83099781 -64.24927514 26.43105103 -66.58789062 31.20996094 C-67.58561331 36.64200666 -66.97112884 40.66138223 -64.46289062 45.58496094 C-61.39004178 49.15610959 -58.79725093 50.81522979 -54.11523438 51.62402344 C-48.31002558 52.01308505 -44.38530839 50.24922486 -39.41210938 47.36621094 C-37.15039062 46.27246094 -37.15039062 46.27246094 -33.15039062 46.27246094 C-31.77832031 47.64941406 -31.77832031 47.64941406 -30.57226562 49.55371094 C-30.13398437 50.23046875 -29.69570312 50.90722656 -29.24414062 51.60449219 C-28.80070312 52.31992187 -28.35726562 53.03535156 -27.90039062 53.77246094 C-27.21203125 54.84560547 -27.21203125 54.84560547 -26.50976562 55.94042969 C-25.37738275 57.70977793 -24.26222608 59.49012929 -23.15039062 61.27246094 C-25.54529736 66.65529894 -29.56262352 69.07183025 -34.75195312 71.47949219 C-45.51601787 75.58492389 -56.95642316 76.07138482 -67.65820312 71.53027344 C-78.38756933 66.11513877 -86.27462798 58.87891143 -90.15039062 47.27246094 C-92.85571749 35.99723956 -91.09838033 24.96987281 -85.83007812 14.69824219 C-79.34155319 4.25632637 -69.43529364 -2.52040906 -57.48925781 -5.32836914 C-38.23705758 -8.61410478 -18.69153766 -4.31655163 0 0 Z M-114.52539062 151.02246094 C-116.79099882 154.15945691 -117.08399624 156.42158689 -117.15039062 160.27246094 C-115.96682768 163.69164277 -114.78272761 165.67964501 -112.15039062 168.14746094 C-106.25942565 170.3565728 -100.79101708 170.28417083 -94.90820312 168.03027344 C-90.3523118 165.79131462 -86.1438595 163.41625559 -82.15039062 160.27246094 C-84.60845987 154.16086802 -90.89337078 150.67744989 -96.74023438 148.15527344 C-103.84203673 145.73812839 -108.38810143 146.50024785 -114.52539062 151.02246094 Z " fill="#FFFFFF" transform="translate(139.150390625,5.7275390625)"/>
<path d="M0 0 C1.4370809 -0.05422947 2.87475462 -0.09289723 4.3125 -0.125 C5.11300781 -0.14820313 5.91351563 -0.17140625 6.73828125 -0.1953125 C9 0 9 0 12 2 C12.51171875 4.6015625 12.51171875 4.6015625 12.6875 7.625 C12.78611328 9.12933594 12.78611328 9.12933594 12.88671875 10.6640625 C12.92410156 11.43492187 12.96148437 12.20578125 13 13 C13.78375 12.030625 14.5675 11.06125 15.375 10.0625 C16.91288705 8.16037654 17.79259913 7.10370043 20 6 C27.24087591 5.41605839 27.24087591 5.41605839 30.4375 7.875 C32 10 32 10 33 12 C33.33773437 11.50628906 33.67546875 11.01257813 34.0234375 10.50390625 C34.69246094 9.54291016 34.69246094 9.54291016 35.375 8.5625 C35.81585938 7.92441406 36.25671875 7.28632813 36.7109375 6.62890625 C38 5 38 5 40 4 C46.96180396 3.3152324 46.96180396 3.3152324 50.9375 5.9375 C56.45585305 14.13141816 53.66110251 26.57166119 53 36 C57.3675524 31.79931422 61.87143692 27.41399912 62.05859375 20.98828125 C61.80731593 18.95811598 61.43674494 16.99820475 61 15 C59.63764405 7.77302603 59.63764405 7.77302603 60.9375 5 C64.13648908 3.44897499 67.54328194 3.11491292 71 4 C73.67390457 6.76282301 74.67552391 9.58761035 75.6875 13.25 C75.93886719 14.14203125 76.19023437 15.0340625 76.44921875 15.953125 C76.63097656 16.62859375 76.81273437 17.3040625 77 18 C79.80008154 15.35547854 82.0180729 12.97097382 84.0625 9.6875 C85.0215625 8.3571875 85.0215625 8.3571875 86 7 C87.32 7 88.64 7 90 7 C89.56869049 12.22276604 87.64714336 15.39366597 84.4375 19.375 C83.80038086 20.19291016 83.80038086 20.19291016 83.15039062 21.02734375 C82.11036413 22.35951252 81.05655762 23.68090382 80 25 C81.65296434 29.09305456 83.13546142 32.58983503 86 36 C88.42186643 35.85328731 88.42186643 35.85328731 91 35 C92.58395235 32.9982756 92.58395235 32.9982756 93.625 30.4375 C94.23794922 29.09365234 94.23794922 29.09365234 94.86328125 27.72265625 C96.34384295 24.17643115 97.72440643 20.62537118 99 17 C100.98 17.495 100.98 17.495 103 18 C101.87415384 26.7738356 99.15544418 36.06573269 92.578125 42.29296875 C88.78469233 44.80468099 85.49447438 45.19922316 81 45 C76.19176593 43.30297621 72.77795555 40.32819894 69 37 C68.236875 37.763125 67.47375 38.52625 66.6875 39.3125 C65.800625 40.199375 64.91375 41.08625 64 42 C63.484375 42.598125 62.96875 43.19625 62.4375 43.8125 C61 45 61 45 57 45 C57 43.68 57 42.36 57 41 C56.44441406 41.32097656 55.88882813 41.64195312 55.31640625 41.97265625 C52.71002917 43.12860427 50.77959811 43.36462569 47.9375 43.4375 C46.65166016 43.49744141 46.65166016 43.49744141 45.33984375 43.55859375 C43 43 43 43 41.20703125 40.80859375 C39.90733551 37.78438262 39.65837836 35.89589255 39.75 32.625 C39.78867187 31.07425781 39.78867187 31.07425781 39.828125 29.4921875 C40.13185488 23.32094849 40.52867637 17.16087318 41 11 C40.34 11 39.68 11 39 11 C35.67954724 20.36367678 33.8422659 29.53952281 32.46484375 39.375 C32 42 32 42 31 43 C29.35659133 43.09854655 27.7088539 43.12972411 26.0625 43.125 C25.16660156 43.12757813 24.27070313 43.13015625 23.34765625 43.1328125 C21 43 21 43 19 42 C19.33 32.76 19.66 23.52 20 14 C19.34 14 18.68 14 18 14 C17.32438252 15.6630584 16.66066719 17.33094605 16 19 C15.505 20.155 15.01 21.31 14.5 22.5 C12.67866365 27.27757574 12.14280959 32.18950607 11.52734375 37.2421875 C11 40 11 40 9 42 C5.55731797 42.31876685 2.96952173 42.43787267 -0.21362305 41.00024414 C-2.98270879 37.89964013 -2.40356883 34.6140187 -2.20703125 30.68359375 C-2.18154709 29.87132828 -2.15606293 29.05906281 -2.12980652 28.22218323 C-2.04306982 25.62620994 -1.92753345 23.03235695 -1.8125 20.4375 C-1.75279289 18.68560612 -1.69482923 16.93365189 -1.63867188 15.18164062 C-1.57967951 13.51556923 -1.5191837 11.84955025 -1.45703125 10.18359375 C-1.42777054 9.39399765 -1.39850983 8.60440155 -1.36836243 7.7908783 C-1.11873257 2.23746513 -1.11873257 2.23746513 0 0 Z M65 28 C64.319375 29.11375 63.63875 30.2275 62.9375 31.375 C62.55464844 32.00148438 62.17179687 32.62796875 61.77734375 33.2734375 C61.52082031 33.84320313 61.26429688 34.41296875 61 35 C61.33 35.66 61.66 36.32 62 37 C64.64573501 34.77122275 64.64573501 34.77122275 67 32 C66.95502158 29.72476911 66.95502158 29.72476911 66 28 C65.67 28 65.34 28 65 28 Z " fill="#FFFFFF" transform="translate(247,190)"/>
<path d="M0 0 C2.86916187 2.51051663 3.78664803 4.33149715 4.9375 7.9375 C5.01704675 11.83529079 4.15489416 13.76765877 2 17 C-0.71083547 19.1979747 -2.48957172 19.92397877 -5.9375 20.4375 C-9.8124426 19.88393677 -11.95425348 18.40826469 -15 16 C-16.73631636 12.52736727 -16.60190402 8.78806987 -16 5 C-11.19738834 -1.06645683 -7.27922186 -1.87809105 0 0 Z " fill="#FFFFFF" transform="translate(237,213)"/>
</svg>
