<svg width="80" height="21" viewBox="0 0 80 21" fill="none" xmlns="http://www.w3.org/2000/svg">
  <path
    d="M66.5564 20.9984H52.5751C51.5735 20.9984 50.6425 20.6034 49.9516 19.8859C49.3029 19.2168 48.9458 18.3374 48.9458 17.4105V12.2184L44.6339 16.4811C43.9504 17.1568 43.041 17.5296 42.0743 17.5296H42.0652C41.0985 17.5296 40.19 17.1576 39.5056 16.4811L35.1937 12.2184V17.7808C35.0027 19.61 33.4547 20.9893 31.5927 20.9893H17.6114C15.7162 20.9893 14.1308 19.5263 14.0013 17.6585V7.16667H3.62011C1.62361 7.16667 0 5.56158 0 3.58785C0 1.61412 1.62361 0.00903117 3.62011 0.00903117H17.3614C17.4486 0.00328404 17.5358 0 17.6205 0C19.617 0 21.2406 1.60509 21.2406 3.57882V13.8317H27.9543V3.58785C27.9543 1.61494 29.5779 0.00903117 31.5744 0.00903117C32.5694 0.00903117 33.5303 0.420361 34.2121 1.13711L34.5659 1.48604C34.6215 1.53366 34.6813 1.58949 34.7386 1.64614L42.0702 8.89409L49.4018 1.64614C49.4599 1.58867 49.5214 1.53202 49.5853 1.47701L49.9192 1.14778C49.9748 1.08785 50.0379 1.02627 50.1027 0.966338L50.1085 0.961412C50.1085 0.961412 50.116 0.954844 50.1201 0.95156L50.2248 0.855501L50.2265 0.858785C50.8801 0.310345 51.7047 0.0106732 52.5659 0.0106732C54.5624 0.0106732 56.1861 1.61576 56.1861 3.58949V13.8424H66.5564C68.5529 13.8424 70.1765 15.4475 70.1765 17.4212C70.1765 19.3949 68.5529 21 66.5564 21V20.9984Z"
    fill="white" />
  <path
    d="M66.7767 3.66188L66.6364 5.34876L66.7767 7.03565H66.4473L66.3619 6.02051C66.1708 6.3619 65.9268 6.62899 65.63 6.82178C65.3352 7.01256 65.0098 7.10795 64.6541 7.10795C64.3226 7.10795 64.0258 7.03365 63.7635 6.88504C63.5013 6.73643 63.2949 6.52858 63.1444 6.26149C62.996 5.9944 62.9218 5.69016 62.9218 5.34876C62.9218 5.00737 62.996 4.70313 63.1444 4.43604C63.2949 4.16895 63.5013 3.9611 63.7635 3.81249C64.0258 3.66388 64.3226 3.58958 64.6541 3.58958C65.0098 3.58958 65.3352 3.68597 65.63 3.87876C65.9268 4.06954 66.1708 4.33563 66.3619 4.67702L66.4473 3.66188H66.7767ZM64.6541 6.80069C65.0444 6.80069 65.3921 6.67117 65.6971 6.41211C66.002 6.15104 66.246 5.79659 66.429 5.34876C66.246 4.90094 66.002 4.54749 65.6971 4.28843C65.3921 4.02737 65.0444 3.89684 64.6541 3.89684C64.3877 3.89684 64.1488 3.95809 63.9374 4.08059C63.7259 4.20309 63.5602 4.37479 63.4403 4.59569C63.3223 4.81458 63.2634 5.06561 63.2634 5.34876C63.2634 5.63192 63.3223 5.88395 63.4403 6.10485C63.5602 6.32375 63.7259 6.49444 63.9374 6.61694C64.1488 6.73944 64.3877 6.80069 64.6541 6.80069Z"
    fill="white" />
  <path
    d="M69.7843 3.58958C70.1157 3.58958 70.4125 3.66388 70.6748 3.81249C70.9371 3.9611 71.1424 4.16895 71.2908 4.43604C71.4413 4.70313 71.5165 5.00737 71.5165 5.34876C71.5165 5.69016 71.4413 5.9944 71.2908 6.26149C71.1424 6.52858 70.9371 6.73643 70.6748 6.88504C70.4125 7.03365 70.1157 7.10795 69.7843 7.10795C69.4081 7.10795 69.0656 7.00151 68.7565 6.78865C68.4495 6.57377 68.2025 6.27957 68.0154 5.90604V8.02971H67.6861V3.66188H68.0154V4.79149C68.2025 4.41796 68.4495 4.12477 68.7565 3.9119C69.0656 3.69702 69.4081 3.58958 69.7843 3.58958ZM69.7843 6.80069C70.0506 6.80069 70.2895 6.73944 70.5009 6.61694C70.7124 6.49444 70.8771 6.32375 70.995 6.10485C71.115 5.88395 71.1749 5.63192 71.1749 5.34876C71.1749 5.06561 71.115 4.81458 70.995 4.59569C70.8771 4.37479 70.7124 4.20309 70.5009 4.08059C70.2895 3.95809 70.0506 3.89684 69.7843 3.89684C69.3939 3.89684 69.0462 4.02737 68.7413 4.28843C68.4363 4.54749 68.1923 4.90094 68.0093 5.34876C68.1923 5.79659 68.4363 6.15104 68.7413 6.41211C69.0462 6.67117 69.3939 6.80069 69.7843 6.80069Z"
    fill="white" />
  <path
    d="M74.3767 3.58958C74.7081 3.58958 75.005 3.66388 75.2673 3.81249C75.5295 3.9611 75.7349 4.16895 75.8833 4.43604C76.0337 4.70313 76.109 5.00737 76.109 5.34876C76.109 5.69016 76.0337 5.9944 75.8833 6.26149C75.7349 6.52858 75.5295 6.73643 75.2673 6.88504C75.005 7.03365 74.7081 7.10795 74.3767 7.10795C74.0006 7.10795 73.658 7.00151 73.349 6.78865C73.042 6.57377 72.7949 6.27957 72.6079 5.90604V8.02971H72.2785V3.66188H72.6079V4.79149C72.7949 4.41796 73.042 4.12477 73.349 3.9119C73.658 3.69702 74.0006 3.58958 74.3767 3.58958ZM74.3767 6.80069C74.6431 6.80069 74.882 6.73944 75.0934 6.61694C75.3049 6.49444 75.4695 6.32375 75.5875 6.10485C75.7074 5.88395 75.7674 5.63192 75.7674 5.34876C75.7674 5.06561 75.7074 4.81458 75.5875 4.59569C75.4695 4.37479 75.3049 4.20309 75.0934 4.08059C74.882 3.95809 74.6431 3.89684 74.3767 3.89684C73.9864 3.89684 73.6387 4.02737 73.3337 4.28843C73.0287 4.54749 72.7848 4.90094 72.6018 5.34876C72.7848 5.79659 73.0287 6.15104 73.3337 6.41211C73.6387 6.67117 73.9864 6.80069 74.3767 6.80069Z"
    fill="white" />
  <path
    d="M80 6.08979C80 6.2886 79.9319 6.46532 79.7957 6.61996C79.6595 6.77459 79.4683 6.89508 79.2223 6.98143C78.9763 7.06578 78.6947 7.10795 78.3775 7.10795C78.0461 7.10795 77.7483 7.05674 77.484 6.95432C77.2217 6.8519 77.0143 6.70932 76.8618 6.52658C76.7093 6.34182 76.627 6.12996 76.6148 5.89098H76.9503C76.9726 6.07172 77.0479 6.23237 77.1759 6.37295C77.304 6.51151 77.4718 6.61996 77.6792 6.69828C77.8886 6.77459 78.1214 6.81274 78.3775 6.81274C78.6297 6.81274 78.8523 6.78262 79.0454 6.72237C79.2386 6.66012 79.389 6.57477 79.4968 6.46633C79.6046 6.35588 79.6584 6.23037 79.6584 6.08979C79.6584 5.9693 79.6259 5.87291 79.5608 5.80061C79.4958 5.72631 79.388 5.66606 79.2376 5.61987C79.0891 5.57368 78.8797 5.53553 78.6093 5.5054L77.9628 5.43311C77.5257 5.38491 77.2095 5.29053 77.0143 5.14995C76.8212 5.00938 76.7246 4.81258 76.7246 4.55954C76.7246 4.36073 76.7876 4.18802 76.9137 4.04143C77.0397 3.89483 77.2156 3.78337 77.4413 3.70706C77.669 3.62874 77.9323 3.58958 78.2312 3.58958C78.5524 3.58958 78.8411 3.63778 79.0973 3.73417C79.3535 3.82856 79.5558 3.9621 79.7042 4.13481C79.8546 4.3055 79.937 4.5013 79.9512 4.72221H79.6157C79.5954 4.55954 79.5232 4.41495 79.3992 4.28843C79.2772 4.15991 79.1135 4.0605 78.9082 3.99022C78.7028 3.91993 78.4731 3.88479 78.219 3.88479C77.8489 3.88479 77.5643 3.94202 77.365 4.05649C77.1658 4.16895 77.0662 4.33061 77.0662 4.54147C77.0662 4.65594 77.0956 4.75133 77.1546 4.82764C77.2156 4.90395 77.3132 4.9662 77.4474 5.0144C77.5816 5.0626 77.7615 5.09975 77.9872 5.12585L78.6276 5.19815C78.9733 5.23631 79.2447 5.29053 79.4419 5.36081C79.6412 5.42909 79.7835 5.52147 79.8689 5.63795C79.9563 5.75442 80 5.90504 80 6.08979Z"
    fill="white" />
</svg>